<svg xmlns="http://www.w3.org/2000/svg" viewBox="0 0 421.07 389.96"><defs><style>.cls-1{fill:#c08e51;}.cls-2{fill:#414042;}</style></defs><g id="Layer_2" data-name="Layer 2"><g id="Layer_1-2" data-name="Layer 1"><circle class="cls-1" cx="153.74" cy="236.22" r="153.74"/><path class="cls-2" d="M299.62,256.87c-3-1.44,3.15-3.27,1.93-5.44a9,9,0,0,0-1.89-3.11,1.08,1.08,0,0,1-.39-1.2c1.59-3.21,1-7-2.14-8.91-1.89,14.41-12.46,1.69-26,10.06-11.74,6.42-20.09,19.6-17.54,33.25.8,4.56,2.53,8.67,6.3,11.64-5-8.59-4.21-19.23.32-27.83,4.52-9.78,16.3-13.63,26.44-12.88,11.36-.57,12.7,20.31.21,17a4.8,4.8,0,0,1-3.12-4.67c.05-.43.61-.9,0-1.33-2.84-2.7-7.11-.36-8.75,2.26-.28.42-.47.57-.95.39-2.81-1.15-6.64,1.6-5.57,4.57.68,2,3.78,3.43,5.77,2.82a14.83,14.83,0,0,1,3.43-.64c4.08.12,3.12,6-.07,6.7-2.82.76-5.72-.08-8.56.55-3.18.88-1.87,5.42,1.06,6.18.64.22.9.5.58,1.15-2.74,5.4,5.14,10.75,9.57,8.11-5.41-3.56-2.33-11.23,3.5-11.91,6.44-.83,13.06-.66,17.89-5a154.57,154.57,0,0,0,3.92-17.5A9.81,9.81,0,0,0,299.62,256.87Z"/><path class="cls-2" d="M209.27,360.61c1.52,7.35-.77,14.79-5,20.87a152.36,152.36,0,0,1-16.57,4.71c10.29-4.93,17.27-18.66,15-29.43-1.71-9-4.87-17.88-4.85-27.11a40.84,40.84,0,0,0,9.91-21.39,32.38,32.38,0,0,1,20.95-6.77C204.14,311.44,202.93,338.37,209.27,360.61Z"/><path class="cls-2" d="M216.12,322.76c-5.64,17.46,8.64,34,6,51.21a153.09,153.09,0,0,0,21.51-13,39.89,39.89,0,0,1-9-1.92C219.94,353.79,215.84,336.82,216.12,322.76Z"/><path class="cls-2" d="M418.43,141.37l-.35.06c-7.75,2-15.88,3.11-23.74,4.66l-48.68,9.56q-27.43,5.37-54.84,10.76A153.66,153.66,0,0,1,306,258.35a13.55,13.55,0,0,0-4.46-3.11,4.78,4.78,0,0,0-.57-7.69c2.43-4.91.67-8.92-3.73-11.21-.43-.23-.73-.09-.88.43-.9,2.31-.88,5.52-3.25,6.89-4.44,1.76-9.29-1.27-14,.1-19.72,3.63-34.82,26.89-24.92,45.68-7.47-4.5-15.74-7.39-23.66-10.95a26.56,26.56,0,0,0-11.66-2.11,35.09,35.09,0,0,0-10.68,2.4V205.72h-36V133.28l-122,122,7.9,7.91L161,160.27v45.45H130.65V216.9H161v46.67h11.17V216.9H197v85.35a30.39,30.39,0,0,1-60.78,0H125.05a41.53,41.53,0,0,0,71.39,28.91c.27,7.76,2.3,15.86,3.44,23.11,2.13,12.93-5.5,27.83-19,30.53a9.12,9.12,0,0,1-10.21-11.59,4.68,4.68,0,0,1,5-3.6c1.21,0,2.38.82,3.54.29-.08-.33-.06-.8-.28-.94-4-3.25-9.52-2.37-13.33.78a17.06,17.06,0,0,0-5.3,20.09,153.79,153.79,0,1,1,88.61-274.51c2.29-3.4,4.58-6.78,6.84-10.19q16-23.79,32-47.6,13.2-19.65,26.42-39.33,5.52-8.17,11-16.37c1.06-1.56,3.31-2.46,5-1.31L338.29,6c1.56,1,2.48,3.28,1.33,5-.06.09-.14.17-.2.27-3.79,6.49-8.47,12.61-12.67,18.87l-26,38.73q-15,22.38-30.08,44.78c-3,4.38-5.89,8.76-8.84,13.12,3.11,3.07,6.14,6.28,9,9.67a153.59,153.59,0,0,1,10.86,14.35l18-3.54,52.94-10.38,43.77-8.59,18.21-3.58c1.82-.35,4.1.53,4.52,2.56.62,3.21,1.25,6.4,1.87,9.61a4.35,4.35,0,0,1,.06,1A3.09,3.09,0,0,1,418.43,141.37Z"/></g></g></svg>