<svg xmlns="http://www.w3.org/2000/svg" xmlns:xlink="http://www.w3.org/1999/xlink" viewBox="0 0 295.45 295.45"><defs><style>.cls-1{fill:url(#linear-gradient);}.cls-2{fill:#fff;}.cls-3{fill:url(#linear-gradient-2);}.cls-4{fill:url(#linear-gradient-3);}.cls-5{fill:url(#linear-gradient-4);}.cls-6{fill:url(#linear-gradient-5);}</style><linearGradient id="linear-gradient" x1="147.72" y1="3.14" x2="147.72" y2="293.55" gradientUnits="userSpaceOnUse"><stop offset="0" stop-color="#84cfa9"/><stop offset="1" stop-color="#48bb88"/></linearGradient><linearGradient id="linear-gradient-2" x1="192.37" y1="70.87" x2="204.59" y2="70.87" xlink:href="#linear-gradient"/><linearGradient id="linear-gradient-3" x1="156.83" y1="71.35" x2="180.41" y2="71.35" xlink:href="#linear-gradient"/><linearGradient id="linear-gradient-4" x1="152.33" y1="71.35" x2="184.91" y2="71.35" xlink:href="#linear-gradient"/><linearGradient id="linear-gradient-5" x1="121.53" y1="211.89" x2="173.95" y2="211.89" xlink:href="#linear-gradient"/></defs><g id="Layer_2" data-name="Layer 2"><g id="Layer_1-2" data-name="Layer 1"><circle class="cls-1" cx="147.72" cy="147.72" r="147.72"/><path class="cls-2" d="M136.12,184s0,0,0,0a36.67,36.67,0,0,0-46.4-24.44,68.26,68.26,0,0,1-5.5-11.42c-.46-1.24-.89-2.51-1.27-3.8l1.14-.06c8.18-.46,11.21-3,12.23-5.79a14,14,0,0,1,2.75-5.37,9.51,9.51,0,0,1,7.15-2.89l0-.23a11.81,11.81,0,0,0-9-.83,19.77,19.77,0,0,0-6.33,3.78,10,10,0,0,1-6.54,1.86,8.19,8.19,0,0,1-1,0,20.28,20.28,0,0,1-2-.29l-.64-.15c8.91-15.7,17.25-19.13,22.7-18.58,1.84.18,5.54,1,9.71-.06,5.11-1.31,8-5.14,9.73-7.84a12.12,12.12,0,0,1-9.81,1.53c-3.36-1-5.52-3.37-6.7-4.36-3.63-3.06-10.57-3.71-25,6.46a67.16,67.16,0,0,1,8.63-22,37.38,37.38,0,0,0,7.51-.37,35.94,35.94,0,0,0,8.47-2.34,36.38,36.38,0,0,0-10-5.55,66.7,66.7,0,0,1,5.68-6,37,37,0,0,0,12.85.43,36.33,36.33,0,0,0-6.88-5.37,67.12,67.12,0,0,1,33.53-12.84c.81-.08,1.62-.14,2.44-.19a37.26,37.26,0,0,0-7.35-19.54,37.51,37.51,0,0,1,55,19.55,16.22,16.22,0,0,1,2.1-.14,15.8,15.8,0,0,1,9.41,28.48,67.94,67.94,0,0,1,8.92,17.36h-19a1.75,1.75,0,0,1-.22.49c-4.32,7.4-13.49,9.75-24.63,11.08a39.81,39.81,0,0,1-18.93-2.34V101.05a2.84,2.84,0,0,0-3-3.5,3.92,3.92,0,0,0-3.76,3.5v53.08a3.91,3.91,0,0,0,3.76,3.52,2.84,2.84,0,0,0,3-3.52v-8.25h62.83a67.32,67.32,0,0,1-38.36,41.33,45,45,0,0,1-19.93,84.16c-.76,0-1.54.06-2.31.06-.45,0-.9,0-1.34,0s-.95,0-1.42-.06-1-.06-1.42-.11A45.78,45.78,0,0,1,140,270a25.46,25.46,0,0,0-29.26-23.8,44.54,44.54,0,0,1-4.4-15.59c-.13-1.39-.2-2.8-.2-4.24a44.91,44.91,0,0,1,14.67-33.25L121,193c.67-.6,1.37-1.19,2.08-1.76l1.07-.84c.59-.45,1.2-.88,1.82-1.28l.42-.3,4.18-2.43Z"/><path class="cls-3" d="M193,62.4a10.44,10.44,0,0,1,8.83,7,12.69,12.69,0,0,1,.41,5.48c-.18,1.78-.71,3.83-2.52,4.58-.3.13-.87.49-.58.88s1.11.16,1.44,0a6.13,6.13,0,0,0,3.7-4.79,13.86,13.86,0,0,0-.2-6.53,11.58,11.58,0,0,0-10.23-7.91c-.43,0-1.23.17-1.44.6s.19.61.59.64Z"/><circle class="cls-4" cx="168.62" cy="71.35" r="11.79"/><path class="cls-5" d="M168.62,87.64a16.29,16.29,0,1,1,16.29-16.29A16.31,16.31,0,0,1,168.62,87.64Zm0-23.58a7.29,7.29,0,1,0,7.29,7.29A7.3,7.3,0,0,0,168.62,64.06Z"/><circle class="cls-2" cx="168.6" cy="71.7" r="8.72"/><path class="cls-6" d="M143.05,211.89c-3.79,1.09-7.06,3.72-6.87,8a7.55,7.55,0,0,0,7.71,7.11,17,17,0,0,0,10.63-4.44A14.78,14.78,0,0,0,144.74,197c-7.93-.21-16.1,4.54-20.11,11.29a22.07,22.07,0,0,0,19.81,33.37,31.7,31.7,0,0,0,21.44-9.73A29.45,29.45,0,0,0,163.34,189a30,30,0,0,0-21.68-6.75,37.23,37.23,0,0,0-6.11,1.08c-.11,0-1.49.43-1.39.61s1.37-.14,1.51-.17c14.18-3.63,29.18,5.56,33.79,19.1,4.67,13.7-1.63,29.5-14.78,35.81A20.75,20.75,0,0,1,134,237a22,22,0,0,1-.62-35.93c3.12-2.26,6.69-3.66,10.58-3.05a14.65,14.65,0,0,1,8.53,24.38,13.81,13.81,0,0,1-4.43,3.25,5.77,5.77,0,0,1-5.16-.33,7.41,7.41,0,0,1-3.3-9.29c.62-1.47,2.08-3.27,3.53-3.69.12,0,1.5-.42,1.39-.6s-1.36.13-1.5.17Z"/></g></g></svg>