<svg width="137" height="128" viewBox="0 0 137 128" fill="none" xmlns="http://www.w3.org/2000/svg">
<path d="M132.56 53.6951C132.104 52.6919 131.382 51.0419 130.956 50.0284C130.53 49.0146 129.941 47.6574 129.649 47.0121C128.506 44.4917 124.675 35.7044 124.675 35.6029C124.675 35.1529 120.971 27.8005 120.475 27.2672C119.347 26.0525 118.03 25.4421 111.816 23.2553C100.308 19.2047 91.0651 14.8202 80.0885 8.20553C78.0719 6.99025 75.6299 5.62625 74.6619 5.17452C72.471 4.15196 69.2126 3.71255 67.4192 4.19743C65.1221 4.81871 64.6246 5.14577 58.6195 9.98489C55.3426 12.6252 47.4479 18.9732 41.0752 24.0916C27.7951 34.7575 25.5678 36.6926 24.5728 38.428C24.1783 39.1158 21.9692 42.7147 19.6636 46.4254C17.358 50.1361 15.2261 53.6056 14.926 54.1357C14.6259 54.6657 13.3458 56.7777 12.0812 58.829C6.23834 68.3072 5.02247 70.3086 4.54375 71.2341C4.14863 71.9982 4.02455 73.0023 4.00314 75.6059C3.94828 82.3244 4.60388 85.0732 6.65077 86.7065L13.2085 92.1684C16.7511 93.9524 29.8267 100.608 38.5819 105.083C59.4156 115.733 73.1577 122.523 75.0784 123.118C78.7266 124.247 81.7324 123.559 85.7865 120.665C86.7839 119.953 92.2132 114.654 97.851 108.888C110.861 95.5831 110.657 95.7905 122.206 84.1085L114.098 76" stroke="#1B2637" stroke-width="8"/>
<path d="M65.5419 40.4531C68.2428 38.3008 68.4666 38.1553 69.4998 37.879C70.3064 37.6633 71.7719 37.8588 72.7573 38.3136C73.1927 38.5145 74.2911 39.1212 75.1981 39.6617C80.135 42.6037 84.2924 44.5537 89.4684 46.3553C92.263 47.328 92.8555 47.5995 93.3629 48.1397C93.5857 48.3769 95.2519 51.647 95.2519 51.8471C95.2519 51.8923 96.9748 55.8006 97.489 56.9216C97.6205 57.2086 97.885 57.8123 98.0767 58.2632C98.2684 58.7139 98.593 59.4478 98.7982 59.894C100.007 62.5243 99.9329 62.1518 100.024 66.0541C100.029 66.2694 100 66.6217 99.9604 66.8369C99.9204 67.0522 99.8837 67.2693 99.8787 67.3194C99.8512 67.5948 98.0344 69.5269 94.1414 73.4209C88.9471 78.6166 89.0388 78.5244 83.1872 84.442C80.6514 87.0065 78.2095 89.3636 77.7609 89.6802C75.9374 90.967 74.5855 91.2731 72.9447 90.7709C72.0808 90.5065 65.9 87.4863 56.5296 82.7498L42.6106 75.0612C42.6106 75.0612 42.2734 74.7778 42.1679 74.5764C41.2472 73.85 40.9524 72.6274 40.977 69.6392C40.9867 68.4812 41.0425 68.0346 41.2202 67.6948C41.4355 67.2831 41.9824 66.393 44.6103 62.1774C45.1791 61.265 45.7549 60.3257 45.8898 60.0899C46.0248 59.8542 46.9837 58.311 48.0207 56.6607C49.0577 55.0103 50.0513 53.4096 50.2287 53.1036C50.6762 52.3318 51.678 51.4711 57.651 46.7273C60.5172 44.4508 64.0681 41.6274 65.5419 40.4531Z" fill="url(#paint0_radial_35_3)"/>
<defs>
<radialGradient id="paint0_radial_35_3" cx="0" cy="0" r="1" gradientUnits="userSpaceOnUse" gradientTransform="translate(70.5 64.3956) rotate(90) scale(26.6044 29.5244)">
<stop offset="0.15625" stop-color="#DB3DF5"/>
<stop offset="1" stop-color="#7A3DF5"/>
</radialGradient>
</defs>
</svg>
