<svg xmlns="http://www.w3.org/2000/svg" viewBox="0 0 169.89 212.03"><defs><style>.cls-1{fill:#534588;}</style></defs><g id="Layer_2" data-name="Layer 2"><g id="Layer_1-2" data-name="Layer 1"><path class="cls-1" d="M4.45,132.12c14.79,39.29,79.65,4.14,89.74,16.61V146.1c-4.09-34.86-43.32-36.25-43.12-45.7.2-9.77,36.61-15.29,39-30.31h0c-7,15-99.18,15-85.65,62"/><path class="cls-1" d="M96.68,210.87c22.59,2.48,19.12.46,33.8-1.18,13.68-1.52,29.78-4.05,37.1-6l2.09-13a1.73,1.73,0,0,0-1.73-2.55L98.1,197v-13.7a1.85,1.85,0,0,0-1.85-1.85H93.89a1.49,1.49,0,0,0,0-.21V154.66a1.85,1.85,0,0,0-1.84-1.85l-38.41,5.82-38.4-5.82a1.84,1.84,0,0,0-1.84,1.85V181.2a1.49,1.49,0,0,0,0,.21h-.11a.39.39,0,0,0,.09-.21L8.63,154.75a1.87,1.87,0,0,0-1.89-1.85H5.2a1.85,1.85,0,0,0-1.85,1.85V181.2a1.52,1.52,0,0,0,0,.21H1.85A1.85,1.85,0,0,0,0,183.26v25.82c.37.4,1,1.08,1.84,1.85C27,211.49,46.45,205.36,96.68,210.87Z"/><path class="cls-1" d="M67,4.28H94.76V0H51.53A32.8,32.8,0,1,0,71.6,58.72c20,0,18.5,11.33,18.5,11.33C94.76,57.34,89.16,11.8,67,4.28ZM52.13,58.71A25.56,25.56,0,1,1,77.69,33.16,25.56,25.56,0,0,1,52.13,58.71Z"/></g></g></svg>