<svg width="152" height="149" viewBox="0 0 152 149" fill="none" xmlns="http://www.w3.org/2000/svg">
<path fill-rule="evenodd" clip-rule="evenodd" d="M76 0C34.01 0 0 34.01 0 76C0 109.63 21.755 138.035 51.965 148.105C55.765 148.77 57.19 146.49 57.19 144.495C57.19 142.69 57.095 136.705 57.095 130.34C38 133.855 33.06 125.685 31.54 121.41C30.685 119.225 26.98 112.48 23.75 110.675C21.09 109.25 17.29 105.735 23.655 105.64C29.64 105.545 33.915 111.15 35.34 113.43C42.18 124.925 53.105 121.695 57.475 119.7C58.14 114.76 60.135 111.435 62.32 109.535C45.41 107.635 27.74 101.08 27.74 72.01C27.74 63.745 30.685 56.905 35.53 51.585C34.77 49.685 32.11 41.895 36.29 31.445C36.29 31.445 42.655 29.45 57.19 39.235C63.27 37.525 69.73 36.67 76.19 36.67C82.65 36.67 89.11 37.525 95.19 39.235C109.725 29.355 116.09 31.445 116.09 31.445C120.27 41.895 117.61 49.685 116.85 51.585C121.695 56.905 124.64 63.65 124.64 72.01C124.64 101.175 106.875 107.635 89.965 109.535C92.72 111.91 95.095 116.47 95.095 123.595C95.095 133.76 95 141.93 95 144.495C95 146.49 96.425 148.865 100.225 148.105C115.312 143.011 128.422 133.315 137.71 120.38C146.998 107.445 151.995 91.9238 152 76C152 34.01 117.99 0 76 0Z" fill="white"/>
</svg>
