<svg width="232" height="68" viewBox="0 0 232 68" fill="none" xmlns="http://www.w3.org/2000/svg">
<path fill-rule="evenodd" clip-rule="evenodd" d="M6.72863 12.8917C10.2771 12.8917 13.1538 10.0151 13.1538 6.46654C13.1538 2.91802 10.2771 0.0413818 6.72863 0.0413818C3.18011 0.0413818 0.303467 2.91802 0.303467 6.46654C0.303467 10.0151 3.18011 12.8917 6.72863 12.8917ZM69.3739 33.7795C69.3739 20.8079 79.6246 10.2304 92.4674 9.70558C93.0192 9.68303 93.4683 9.23745 93.4683 8.68517V1.04743C93.4683 0.495143 93.0202 0.0458968 92.4681 0.061972C84.3019 0.299764 76.8635 3.43997 71.1487 8.48691C70.4772 9.0799 69.3727 8.61956 69.3727 7.72374V1.05902C69.3727 0.506732 68.925 0.0590164 68.3727 0.0590164L60.7778 0.0590167C60.2256 0.0590168 59.7778 0.506731 59.7778 1.05902V32.0888C59.7502 32.6489 59.7362 33.2125 59.7362 33.7795C59.7362 33.7795 59.7362 33.7795 59.7362 33.7795C59.7362 33.7795 59.7362 33.7795 59.7362 33.7795C59.7362 47.0864 48.9488 57.8738 35.6418 57.8738C22.6702 57.8738 12.0927 47.6232 11.5679 34.7804C11.5453 34.2286 11.0998 33.7795 10.5475 33.7795H2.90974C2.35745 33.7795 1.90823 34.2298 1.92434 34.7818C2.45447 52.9479 17.3474 67.5116 35.6418 67.5116C54.2715 67.5116 69.3739 52.4092 69.3739 33.7795ZM209.034 9.68517C201.93 9.68517 196.805 14.5293 196.237 19.9309C196.179 20.4801 195.736 20.9292 195.184 20.9292H187.546C186.994 20.9292 186.544 20.4803 186.571 19.9287C187.138 8.47994 197.394 0.0474281 209.034 0.0474281C220.458 0.0474281 230.548 8.16874 231.456 19.2922C231.458 19.3094 231.472 19.3229 231.489 19.3229C231.508 19.3229 231.523 19.3378 231.523 19.3562V20.9042L231.523 20.9292L231.523 63.299C231.523 63.8513 231.075 64.299 230.523 64.299H222.885C222.332 64.299 221.885 63.8513 221.885 63.299V62.7897C221.885 61.94 220.878 61.4616 220.178 61.9439C216.555 64.4424 212.162 65.9053 207.428 65.9053C195.008 65.9053 184.94 55.8371 184.94 43.4173C184.94 30.9975 195.008 20.9292 207.428 20.9292C212.162 20.9292 216.555 22.3922 220.178 24.8906C220.878 25.373 221.885 24.8946 221.885 24.0449L221.885 20.9292L221.885 20.9122C221.874 15.1305 216.567 9.68517 209.034 9.68517ZM149.688 25.7481C139.936 25.7481 132.03 33.6486 132.019 43.3982L132.019 43.4173L132.019 61.6927C132.019 62.245 131.572 62.6927 131.019 62.6927H123.381C122.829 62.6927 122.381 62.245 122.381 61.6927V43.4173V1.10898C122.381 0.556698 122.829 0.108982 123.381 0.108982L126.019 0.108982C129.333 0.108982 132.019 2.79527 132.019 6.10898V20.4351C132.019 21.2873 133.029 21.7624 133.72 21.2635C138.211 18.021 143.726 16.1103 149.688 16.1103C164.223 16.1103 176.105 27.4654 176.948 41.7882C176.948 41.8009 176.959 41.8109 176.971 41.8109C176.985 41.8109 176.995 41.8216 176.995 41.8348V61.6926C176.995 62.2449 176.548 62.6926 175.995 62.6926H168.358C167.805 62.6926 167.358 62.2449 167.358 61.6926L167.358 43.4173C167.358 33.6589 159.447 25.7481 149.688 25.7481ZM113.633 35.3858C113.633 45.1922 105.684 53.1419 95.8772 53.1419C86.0707 53.1419 78.121 45.1922 78.121 35.3858C78.121 25.5793 86.0707 17.6296 95.8772 17.6296C105.684 17.6296 113.633 25.5793 113.633 35.3858Z" fill="#6A7AFF"/>
</svg>
