<svg width="606" height="347" viewBox="0 0 606 347" fill="none" xmlns="http://www.w3.org/2000/svg">
<path fill-rule="evenodd" clip-rule="evenodd" d="M124.488 0.896133C121.176 2.25213 118.845 5.57412 118.364 9.62312C117.78 14.5451 119.624 18.0041 124.002 20.1991C127.193 21.8001 132.09 21.9481 181.789 21.9491L236.09 21.9511L235.727 126.701C235.373 228.59 235.306 231.7 233.279 240.578C224.356 279.65 195.68 310.725 158.725 321.37C132.69 328.869 105.893 326.496 81.4881 314.532C48.0511 298.14 27.2871 269.479 22.0231 232.451C21.4751 228.601 21.0191 223.189 21.0081 220.424C20.9841 214.496 19.0861 211.308 14.4191 209.358C9.91607 207.476 5.49607 208.559 2.33207 212.319C-0.238926 215.374 -0.274926 215.627 0.304074 226.44C2.96107 276.06 36.6961 321.437 84.2181 339.311C98.6641 344.745 108.278 346.338 126.988 346.396C145.848 346.455 153.632 345.32 168.68 340.318C187.456 334.076 202.575 325.004 216.864 311.406C235.053 294.098 247.156 272.645 253.794 245.951L256.406 235.451L256.733 121.996C256.972 39.3341 256.755 7.80213 255.932 5.81613C253.481 -0.101869 254.037 -0.054871 187.337 0.014129C153.87 0.049129 125.588 0.446133 124.488 0.896133ZM305.301 1.03813C303.548 1.55413 301.186 3.15613 300.051 4.59813L297.988 7.22113V169.163V331.105L300.911 334.028C304.134 337.251 308.824 337.894 313.516 335.756C319.307 333.118 318.988 342.458 318.988 175.501V21.9511L402.238 21.9611L485.488 21.9711L490.59 24.3461C503.918 30.5521 510.72 45.2771 506.61 59.0261C503.026 71.0161 493.765 78.5481 480.867 79.9641C477.085 80.3791 472.884 81.4441 471.531 82.3311C468.126 84.5621 466.306 90.8901 467.937 94.8271C470.207 100.309 472.123 101.199 483.583 102.093C503.932 103.681 521.14 109.545 537.605 120.5C575.098 145.447 592.214 191.088 580.983 236.173C578.097 247.757 568.554 266.605 560.463 276.697C543.19 298.246 513.678 314.2 489.261 315.187L482.749 315.451L473.317 300.585C468.13 292.409 464.021 285.604 464.187 285.463C464.353 285.321 466.063 284.411 467.988 283.441C473.75 280.537 479.043 275.882 483.559 269.747C495.438 253.61 495.262 231.561 483.127 215.714C477.711 208.643 472.718 204.837 464.449 201.478L458.488 199.057L457.988 173.254C457.662 156.418 457.086 146.752 456.331 145.44C452.943 139.553 446.282 137.857 441.242 141.599C436.556 145.078 436.019 147.302 436.003 163.285L435.988 178.119L421.022 159.785C405.087 140.263 402.703 138.343 396.525 140.054C389.98 141.866 381.797 155.183 379.698 167.436C377.483 180.365 381.838 193.749 391.587 203.969C403.036 215.972 409.235 218.096 435.07 218.867L454.652 219.451L459.544 222.477C466.771 226.949 470.366 233.311 470.828 242.445C471.244 250.701 469.48 255.273 463.826 260.589C459.194 264.943 455.051 266.834 448.033 267.793C444.598 268.263 441.147 269.402 439.993 270.446C437.13 273.038 435.566 278.809 436.877 281.951C437.45 283.326 445.022 295.701 453.704 309.451C472.732 339.589 471.313 338.438 487.55 336.9C519.227 333.899 546.765 320.94 568.652 298.734C586.666 280.458 598.094 259.276 603.604 233.951C606.153 222.236 606.146 196.909 603.589 185.004C595.3 146.396 573.738 116.176 541.228 97.6001C535.565 94.3641 523.825 89.1051 516.668 86.5971C515.036 86.0261 515.205 85.5181 518.297 81.7051C530.64 66.4841 532.415 44.8641 522.805 26.7761C517.137 16.1091 506.446 7.20012 493.988 2.76512L487.488 0.451126L397.988 0.276122C344.648 0.171122 307.2 0.479131 305.301 1.03813ZM111.488 132.435C82.0421 140.398 60.0031 162.187 52.3011 190.951C49.6141 200.985 49.8761 221.073 52.8291 231.451C60.7961 259.453 80.2611 279.446 107.988 288.108C114.504 290.144 117.522 290.45 130.988 290.445C145.937 290.439 146.825 290.322 155.967 287.137C171.61 281.689 182.636 274.174 192.458 262.266C198.708 254.689 206.988 239.452 206.988 235.527C206.988 233.967 205.647 231.459 203.647 229.276C200.539 225.884 199.962 225.654 195.397 225.984C181.166 227.013 168.459 226.3 162.556 224.143C144.778 217.645 131.462 203.767 126.389 186.451C123.583 176.873 124.028 162.349 127.415 152.951C131.056 142.848 131.437 140.449 129.963 136.89C127.625 131.245 121.42 129.749 111.488 132.435ZM103.701 169.701C103.62 192.447 111.254 211.329 126.66 226.491C137.618 237.276 155.634 245.839 170.937 247.538L177.387 248.254L171.771 253.481C161.129 263.387 148.995 268.695 134.807 269.653C117.119 270.846 101.79 264.973 88.8851 252.059C77.1231 240.289 71.5161 226.778 71.6201 210.451C71.7471 190.479 81.5071 172.035 97.3781 161.778C100.634 159.673 103.398 157.951 103.521 157.951C103.643 157.951 103.724 163.239 103.701 169.701ZM413.396 183.759L425.127 198.068L421.308 197.374C409.317 195.197 400.988 185.749 400.988 174.324C400.988 171.186 401.14 168.805 401.326 169.034C401.512 169.264 406.944 175.89 413.396 183.759ZM382.988 222.527C357.12 229.321 339.018 252.344 339.018 278.451C339.018 300.434 351.464 320.391 370.988 329.712C382.611 335.262 386.97 335.951 410.46 335.951C430.792 335.951 430.841 335.946 433.838 333.424C437.604 330.255 438.554 326.242 436.629 321.635C434.218 315.863 432.749 315.507 408.988 314.923C387.798 314.403 387.402 314.354 381.51 311.493C361.149 301.606 354.034 277.568 365.992 259.066C368.132 255.756 372.044 251.453 374.685 249.504C380.047 245.548 390.206 241.951 396.017 241.951C400.885 241.951 405.677 238.125 406.535 233.552C407.373 229.084 404.813 223.215 401.471 221.945C397.817 220.555 389.497 220.818 382.988 222.527ZM439.911 235.874C436.017 239.768 435.786 246.443 439.401 250.645C441.454 253.032 442.571 253.451 446.874 253.451C453.535 253.451 456.081 251.035 456.75 244.08C457.191 239.489 456.964 238.773 454.188 235.997C449.945 231.754 444.081 231.704 439.911 235.874ZM331.138 317.478C327.527 320.517 326.423 324.708 327.986 329.444C329.396 333.718 332.374 335.951 336.663 335.951C341.482 335.951 344.698 334.082 346.533 330.215C351.361 320.041 339.629 310.334 331.138 317.478Z" fill="#121920"/>
</svg>
