<svg width="302" height="173" viewBox="0 0 302 173" fill="none" xmlns="http://www.w3.org/2000/svg">
<path fill-rule="evenodd" clip-rule="evenodd" d="M62.0887 0.447551C60.4368 1.12477 59.2742 2.78386 59.0343 4.80603C58.7431 7.2642 59.6628 8.99171 61.8463 10.088C63.4378 10.8875 65.8802 10.9614 90.6677 10.9619L117.75 10.9629L117.569 63.2777C117.393 114.164 117.359 115.717 116.348 120.151C111.898 139.664 97.5958 155.184 79.1644 160.5C66.1794 164.245 52.8144 163.06 40.6423 157.085C23.9656 148.899 13.6095 134.585 10.9841 116.092C10.7107 114.169 10.4833 111.466 10.4778 110.085C10.4658 107.125 9.51922 105.533 7.19154 104.559C4.94566 103.619 2.74118 104.16 1.16313 106.038C-0.119165 107.563 -0.13712 107.69 0.151658 113.09C1.47684 137.871 18.3022 160.534 42.0039 169.46C49.2089 172.174 54.0039 172.97 63.3356 172.999C72.742 173.028 76.6243 172.462 84.1295 169.963C93.4941 166.846 101.035 162.315 108.161 155.524C117.233 146.88 123.27 136.166 126.58 122.834L127.883 117.59L128.046 60.9279C128.165 19.6445 128.057 3.89658 127.647 2.90472C126.424 -0.050876 126.701 -0.0274039 93.4347 0.0070564C76.743 0.0245363 62.6373 0.22281 62.0887 0.447551ZM152.27 0.518469C151.395 0.776172 150.217 1.57625 149.651 2.29642L148.622 3.60641V84.4843V165.362L150.08 166.822C151.687 168.432 154.027 168.753 156.367 167.685C159.255 166.368 159.096 171.032 159.096 87.6497V10.9629L200.617 10.9679L242.138 10.9729L244.683 12.1591C251.33 15.2585 254.723 22.6125 252.673 29.4791C250.885 35.4672 246.266 39.2289 239.833 39.9361C237.947 40.1434 235.852 40.6752 235.177 41.1182C233.479 42.2325 232.571 45.3928 233.385 47.3591C234.517 50.0969 235.472 50.5414 241.188 50.9879C251.337 51.781 259.92 54.7096 268.132 60.1808C286.831 72.64 295.368 95.4342 289.766 117.951C288.327 123.736 283.567 133.149 279.532 138.189C270.917 148.952 256.198 156.919 244.02 157.412L240.772 157.544L236.068 150.12C233.481 146.036 231.431 142.638 231.514 142.567C231.597 142.497 232.45 142.042 233.41 141.558C236.284 140.107 238.924 137.782 241.176 134.718C247.101 126.659 247.013 115.647 240.961 107.733C238.259 104.202 235.769 102.301 231.645 100.623L228.672 99.4141L228.422 86.5275C228.26 78.1191 227.973 73.2917 227.596 72.6365C225.906 69.6963 222.584 68.8493 220.07 70.7182C217.733 72.4557 217.465 73.5664 217.457 81.5487L217.45 88.9572L209.986 79.8007C202.038 70.0509 200.849 69.092 197.768 69.9465C194.503 70.8515 190.422 77.5023 189.375 83.6218C188.27 90.0789 190.442 96.7632 195.305 101.867C201.015 107.862 204.107 108.923 216.992 109.308L226.759 109.599L229.199 111.111C232.803 113.344 234.596 116.521 234.826 121.083C235.034 125.206 234.154 127.49 231.334 130.145C229.024 132.319 226.958 133.264 223.457 133.743C221.744 133.977 220.023 134.546 219.447 135.068C218.019 136.362 217.239 139.244 217.893 140.813C218.179 141.5 221.956 147.681 226.286 154.548C235.776 169.599 235.068 169.024 243.167 168.256C258.966 166.758 272.7 160.286 283.616 149.195C292.601 140.068 298.301 129.489 301.049 116.841C302.32 110.99 302.317 98.3414 301.041 92.3957C296.907 73.1139 286.153 58.0213 269.939 48.7439C267.114 47.1278 261.259 44.5013 257.689 43.2488C256.875 42.9636 256.96 42.7099 258.502 40.8056C264.658 33.2038 265.543 22.4063 260.75 13.3727C257.923 8.0453 252.591 3.59592 246.378 1.38097L243.136 0.225303L198.497 0.137902C171.894 0.0854629 153.217 0.23929 152.27 0.518469ZM55.6049 66.1414C40.9186 70.1184 29.9267 81.0003 26.0853 95.3658C24.7451 100.377 24.8758 110.409 26.3486 115.593C30.3222 129.577 40.0304 139.562 53.8593 143.888C57.1091 144.905 58.6144 145.058 65.3306 145.056C72.7864 145.053 73.2293 144.994 77.7889 143.403C85.5909 140.683 91.0901 136.929 95.9888 130.982C99.106 127.198 103.236 119.588 103.236 117.628C103.236 116.849 102.567 115.597 101.569 114.506C100.019 112.812 99.7315 112.697 97.4547 112.862C90.3569 113.376 84.0193 113.02 81.0752 111.943C72.2083 108.697 65.567 101.766 63.0368 93.1184C61.6373 88.3349 61.8593 81.0812 63.5485 76.3876C65.3645 71.3419 65.5545 70.1438 64.8193 68.3664C63.6533 65.5471 60.5585 64.8 55.6049 66.1414ZM51.7211 84.753C51.6807 96.1129 55.4882 105.543 63.172 113.115C68.6373 118.502 77.6228 122.778 85.2552 123.627L88.4722 123.984L85.6712 126.595C80.3634 131.542 74.3116 134.193 67.2353 134.672C58.4134 135.267 50.768 132.334 44.3316 125.885C38.4653 120.006 35.6688 113.259 35.7207 105.105C35.784 95.1301 40.6518 85.9187 48.5675 80.7961C50.1914 79.7448 51.57 78.8848 51.6313 78.8848C51.6922 78.8848 51.7326 81.5257 51.7211 84.753ZM206.182 91.7739L212.033 98.9202L210.128 98.5736C204.148 97.4863 199.994 92.7678 199.994 87.0618C199.994 85.4946 200.069 84.3055 200.162 84.4199C200.255 84.5348 202.964 87.844 206.182 91.7739ZM191.016 111.136C178.114 114.529 169.086 126.027 169.086 139.065C169.086 150.044 175.293 160.011 185.031 164.667C190.828 167.438 193.002 167.782 204.718 167.782C214.858 167.782 214.883 167.78 216.378 166.52C218.256 164.938 218.73 162.934 217.77 160.633C216.567 157.75 215.834 157.572 203.984 157.281C193.415 157.021 193.218 156.996 190.279 155.567C180.124 150.63 176.575 138.624 182.539 129.384C183.607 127.731 185.558 125.582 186.875 124.609C189.549 122.633 194.616 120.836 197.514 120.836C199.942 120.836 202.332 118.926 202.76 116.642C203.178 114.41 201.901 111.479 200.234 110.845C198.412 110.151 194.262 110.282 191.016 111.136ZM219.407 117.801C217.464 119.746 217.349 123.08 219.152 125.178C220.176 126.371 220.733 126.58 222.879 126.58C226.202 126.58 227.471 125.373 227.805 121.9C228.025 119.607 227.912 119.249 226.527 117.863C224.411 115.744 221.486 115.719 219.407 117.801ZM165.156 158.557C163.355 160.074 162.804 162.167 163.584 164.533C164.287 166.667 165.772 167.782 167.911 167.782C170.315 167.782 171.919 166.849 172.834 164.918C175.242 159.837 169.391 154.989 165.156 158.557Z" fill="#9DC9FD"/>
</svg>
