<?xml version="1.0" encoding="utf-8"?>
<!-- Generator: Adobe Illustrator 24.3.0, SVG Export Plug-In . SVG Version: 6.00 Build 0)  -->
<svg version="1.1" id="Layer_1" xmlns="http://www.w3.org/2000/svg" xmlns:xlink="http://www.w3.org/1999/xlink" x="0px" y="0px"
	 viewBox="0 0 1000 1000" style="enable-background:new 0 0 1000 1000;" xml:space="preserve">
<style type="text/css">
	.st0{fill:#231F20;}
</style>
<g>
	<g>
		<path class="st0" d="M42.7,249.6c8.2,0,16.4,0,24.6,0c22.1,0,44.3,0,66.4,0c32.8,0,65.7,0,98.5,0c40,0,80.1,0,120.1,0
			c43.7,0,87.4,0,131.1,0c44.4,0,88.8,0,133.3,0c41.1,0,82.3,0,123.4,0c34.9,0,69.8,0,104.7,0c25.1,0,50.2,0,75.3,0
			c11.9,0,23.7,0.1,35.6,0c0.5,0,1,0,1.6,0c10.5,0,20.5-9.2,20-20c-0.5-10.8-8.8-20-20-20c-8.2,0-16.4,0-24.6,0
			c-22.1,0-44.3,0-66.4,0c-32.8,0-65.7,0-98.5,0c-40,0-80.1,0-120.1,0c-43.7,0-87.4,0-131.1,0c-44.4,0-88.8,0-133.3,0
			c-41.1,0-82.3,0-123.4,0c-34.9,0-69.8,0-104.7,0c-25.1,0-50.2,0-75.3,0c-11.9,0-23.7-0.1-35.6,0c-0.5,0-1,0-1.6,0
			c-10.5,0-20.5,9.2-20,20C23.2,240.5,31.5,249.6,42.7,249.6L42.7,249.6z"/>
	</g>
</g>
<g>
	<g>
		<path class="st0" d="M42.7,790.4c4.1,0,8.3,0,12.4,0c11.1,0,22.3,0,33.4,0c16.5,0,33.1,0,49.6,0c20.2,0,40.3,0,60.5,0
			c22,0,44,0,66,0c22.4,0,44.7,0,67.1,0c20.7,0,41.4,0,62.1,0c17.6,0,35.1,0,52.7,0c12.6,0,25.3,0,37.9,0c6,0,11.9,0,17.9,0
			c0.3,0,0.5,0,0.8,0c5.1,0,10.5-2.2,14.1-5.9c3.5-3.5,6.1-9.2,5.9-14.1c-0.5-10.8-8.8-20-20-20c-4.1,0-8.3,0-12.4,0
			c-11.1,0-22.3,0-33.4,0c-16.5,0-33.1,0-49.6,0c-20.2,0-40.3,0-60.5,0c-22,0-44,0-66,0c-22.4,0-44.7,0-67.1,0
			c-20.7,0-41.4,0-62.1,0c-17.6,0-35.1,0-52.7,0c-12.6,0-25.3,0-37.9,0c-6,0-11.9,0-17.9,0c-0.3,0-0.5,0-0.8,0
			c-5.1,0-10.5,2.2-14.1,5.9c-3.5,3.5-6.1,9.2-5.9,14.1C23.2,781.2,31.5,790.4,42.7,790.4L42.7,790.4z"/>
	</g>
</g>
<g>
	<g>
		<path class="st0" d="M42.7,520c5.9,0,11.8,0,17.7,0c15.9,0,31.8,0,47.7,0c23.6,0,47.1,0,70.7,0c28.7,0,57.5,0,86.2,0
			c31.4,0,62.7,0,94.1,0c31.9,0,63.8,0,95.7,0c29.5,0,59.1,0,88.6,0c25,0,50.1,0,75.1,0c18,0,36,0,54,0c8.5,0,17,0.1,25.5,0
			c0.4,0,0.7,0,1.1,0c10.5,0,20.5-9.2,20-20c-0.5-10.8-8.8-20-20-20c-5.9,0-11.8,0-17.7,0c-15.9,0-31.8,0-47.7,0
			c-23.6,0-47.1,0-70.7,0c-28.7,0-57.5,0-86.2,0c-31.4,0-62.7,0-94.1,0c-31.9,0-63.8,0-95.7,0c-29.5,0-59.1,0-88.6,0
			c-25,0-50.1,0-75.1,0c-18,0-36,0-54,0c-8.5,0-17-0.1-25.5,0c-0.4,0-0.7,0-1.1,0c-10.5,0-20.5,9.2-20,20
			C23.2,510.8,31.5,520,42.7,520L42.7,520z"/>
	</g>
</g>
</svg>
