<svg xmlns="http://www.w3.org/2000/svg" viewBox="0 0 134.5 196.46"><defs><style>.cls-1{fill:#aaac24;}.cls-2{fill:#f26178;}</style></defs><g id="Layer_2" data-name="Layer 2"><g id="Layer_1-2" data-name="Layer 1"><path class="cls-1" d="M85.33,27.26h-.25c-.06,0-.08.08-.08.25l.16.09h.09s.08-.06.08-.17h.09c-.62,1.56-1.15,2.93-1.59,4.1A24.24,24.24,0,0,0,83,34H82.9c-.05,0-.08,0-.08,0s0-.05-.08-.05h-.09V34a.27.27,0,0,1-.08.17h.08s.06.08.17.08v.17l-.75,2.59H81.9v.09l-.08.08c0,.06,0,.08-.09.08s0,.09-.08.09a.29.29,0,0,1-.08.17v.16h.16q-2.43,10.55,0,16.74a10.27,10.27,0,0,0,3,4.48,20,20,0,0,0,2.56,1.72,2.08,2.08,0,0,1,1.34,1.08c.11.28,0,.62-.34,1,0,0-.15.21-.46.46a3.92,3.92,0,0,1-1.21.63,4.85,4.85,0,0,1-1.93.33,9.91,9.91,0,0,1-2.26-.25A9.27,9.27,0,0,1,78,61.24q-3.85-4.86-4.1-13.06a30.23,30.23,0,0,1,.08-5.1c.17-1.79.42-3.54.75-5.27a82,82,0,0,1,3.18-10.47v.09H78v.08h.08c.11.11.2.17.25.17a.27.27,0,0,1,.17.08h.08v-.08h.09l.16-.08v-.42l1.09.16V27a.27.27,0,0,0,0-.25.57.57,0,0,1,0-.25l-.08-.09v-.16h-.09a.24.24,0,0,0-.16.08h-.17a.29.29,0,0,0-.08-.17l-.09-.08h-.08l-.17.17-.08.08c-.06,0-.09,0-.09.08v.09h.34v.08c0,.06,0,.09-.08.09s-.06.08-.17.08h-.67l-.09.08a8.23,8.23,0,0,1,.42-1.09q.26-.49.51-1.08h.16a.15.15,0,0,0,.17-.17v-.25l-.08-.09h-.09a5.82,5.82,0,0,1,.42-1,7,7,0,0,0,.42-.88v-.08h.08v-.08a1.48,1.48,0,0,1,.17-.42v-.09l.25-.41c0,.05.06.08.17.08h.08v-.08l.09-.09v-.08L80.65,21l.5-.92h.08l.08-.08V19.9a.22.22,0,0,1,.09-.17v-.08h-.09l.17-.26.09-.08v.08h.08v.09h.08l.17-.09-.17-.33V19l.09-.17h.08a.15.15,0,0,1,.17-.17v-.08l.08-.17h.09c0-.06,0-.08,0-.08s0,0,0-.09l.08-.08.09-.17h.08l.17-.25H83l.17-.17V17.3l.58-.67a5.78,5.78,0,0,1,.67-.71c.22-.19.48-.43.75-.71h.17A.28.28,0,0,0,85.5,15v-.17s.14,0,.25-.17l.92-.92-.25.17a.27.27,0,0,0-.17.08h-.08A.17.17,0,0,0,86,14a.19.19,0,0,1-.12,0v.08a.22.22,0,0,0-.13,0,.16.16,0,0,1-.12,0l-.25.17V14.2h-.17v-.08h-.09v.25l.09.09-.09.08h-.08l-.08.08c-.11.12-.2.17-.25.17l-.09.08-.25.17c-.11.11-.19.17-.25.17V15L84.08,15,84,14.87V15a.07.07,0,0,0-.08.08v.17c0,.06,0,.08.08.08l-.25.25h-.08v.09l-.09.08v-.08h-.16a.08.08,0,0,0-.09-.09s-.08,0-.08.05,0,0-.08,0,0,.08-.09.08H83l-.17.25a.84.84,0,0,1-.08.34v.16l-.42.34v-.08h-.08a.22.22,0,0,0-.09-.17l-.08-.09H82l.09-.08v-.33h-.25c-.06,0-.09.05-.09.16v.09a.27.27,0,0,0,.17.08l.08.08-.08.09-.17.17s-.08,0-.08,0,0,0-.08,0a.36.36,0,0,0-.09.5.08.08,0,0,1,.09.09h.08v.08l-1.76,1.92h-.08v-.25a1,1,0,0,0-.42-.08c-.06,0-.08,0-.08.08a.08.08,0,0,0-.09.09v.25l.17.17v.16h.08l-.25.42v-.08l-.08-.09L79.06,20H79l-.08-.08v.16a.26.26,0,0,0-.09.17l.17.17h.09c-.28.33-.55.67-.8,1s-.52.67-.8,1H77.3c-.17.11-.25.19-.25.25v.08l.08.09a56.66,56.66,0,0,0-4.19,6.69h-.08v.08h-.08a.1.1,0,0,0,0,.17v.09l-.17.25v.08h-.08a78.7,78.7,0,0,0-3.81,7.87Q67.08,42,65.87,45.34C65.06,47.57,64.44,49.47,64,51s-.75,2.62-.92,3.18l-.42.92a6.73,6.73,0,0,1-3.14,2.09,16.61,16.61,0,0,1-3.39.84h-.83a.9.9,0,0,1-.76-.33c-.11,0-.16-.06-.16-.17a.66.66,0,0,1,0-.67.54.54,0,0,1,0-.25.53.53,0,0,0,0-.17l.08-.08A100.85,100.85,0,0,0,58.22,30v-.33c.05-2.4,0-4.62,0-6.66s-.16-3.79-.25-5.27-.24-3.08-.46-4.81v-.42l-.08.42a81.75,81.75,0,0,1-2.51,14.31l-.09.08H54.7c0,.06,0,.09-.08.09v.08l-.09.17a.15.15,0,0,0,.17.17v.08h.08l-.16.59v-.09h-.09v-.08c-.05,0-.08,0-.08,0s0,0-.08,0-.14.05-.26.16a.37.37,0,0,0-.08.25l.08.09a.29.29,0,0,0,.17.08h.17l-.92,3.68h-.09v.26c-.66,2.34-1.32,4.51-2,6.52s-1.23,3.76-1.76,5.23-1.13,3.09-1.8,4.82a38.23,38.23,0,0,1-4.27,8.53,30.1,30.1,0,0,1-6,6.62l-.09-.09-.08.09v-.09h-.17s0-.08-.17-.08a.25.25,0,0,0-.08.17v.08l.08.08h.17c.06,0,.09,0,.09-.08l.08-.08v.16c-.39.28-.77.56-1.13.84s-.74.56-1.13.84l-.08-.09H35L35,66.18h-.09v.08c0,.06,0,.09-.08.09v.16a23.23,23.23,0,0,1-12.72,3.85,20.63,20.63,0,0,1-5-.58,10.89,10.89,0,0,1-7.28-5.73Q7.4,59.57,8.25,52.87V52.7c.05,0,.08,0,.08-.08v-.08l-.08-.09a21.69,21.69,0,0,1,.54-2.88c.25-1,.52-2,.8-3h.08v.09h.09l.08-.09c.11,0,.17-.05.17-.16v-.25H9.92v-.09H9.84a7.56,7.56,0,0,0,.29-.88,8.27,8.27,0,0,1,.3-.88v.09h.08c.11-.11.17-.2.17-.25v-.25h-.09v-.09l.34-.75h.17v-.25L11,42.74c.39-.78.78-1.57,1.17-2.38S13,38.76,13.44,38A53.74,53.74,0,0,1,18.21,31a44.14,44.14,0,0,1,6-6.15,32.41,32.41,0,0,1,6.74-4.44,15.8,15.8,0,0,1,7-1.72h.58a17.11,17.11,0,0,1,1.76.13,8.14,8.14,0,0,1,2.22.59,8,8,0,0,1,2.17,1.33,6.6,6.6,0,0,1,1.72,2.39c.84,2.12.75,4.77-.25,8l-.08.08v.26a31.58,31.58,0,0,1-3.18,6.11,22.57,22.57,0,0,1-4.36,4.93,14.6,14.6,0,0,1-6.27,3.27H32.1a.24.24,0,0,1-.16.08h-.59a1.22,1.22,0,0,1-1.09-.5v-.08c0-.17.22-.48.67-.93l.25-.16A48,48,0,0,0,35,40a47.28,47.28,0,0,0,3.81-5.23c.39-.67.85-1.43,1.38-2.3a22.58,22.58,0,0,0,1.42-2.72,16.3,16.3,0,0,0,1-2.8,4.93,4.93,0,0,0,.09-2.39,2.23,2.23,0,0,0-1.76-1.84,5.07,5.07,0,0,0-1.17-.17,6.76,6.76,0,0,0-2.93.72,18.4,18.4,0,0,0-3,1.8,25.47,25.47,0,0,0-2.93,2.46c-1,.92-1.84,1.8-2.68,2.64S26.45,32.06,25.7,33s-1.41,1.71-2,2.43S22.53,37,22,37.81q-8.13,12.13-8.46,19.5a8.54,8.54,0,0,0,.8,4.73,9.54,9.54,0,0,0,2,2.47c.12.11.2.16.26.16a1,1,0,0,0,.37.25c.14.06.27.11.38.17a1.08,1.08,0,0,1,.25.17.38.38,0,0,1,.17,0,.54.54,0,0,0,.25,0,11.45,11.45,0,0,0,3.51.5H22.9a13.68,13.68,0,0,0,4.26-.92V65l.26.16h.08c.33,0,.53.06.59.34l.16.17c0,.11.09.16.25.16a.22.22,0,0,0,.17-.08h.08c.28-.11.37-.28.26-.5V64.17a25.6,25.6,0,0,0,9-7.53h.09a.07.07,0,0,0,.08.08.27.27,0,0,0,.17-.08h.08v-.09c.11,0,.17,0,.17-.08h.08l.09.08c.11,0,.17,0,.17-.16s.08-.06.08-.17.08-.06.08-.17,0-.17-.08-.17V55.8H39c-.06,0-.09,0-.09-.08H38.8a.72.72,0,0,0,.12-.21.8.8,0,0,1,.21-.29l.42.16c.11-.11.17-.19.17-.25V55c0-.11-.08-.16-.25-.16v.08h-.09l.51-.67v.08H40c0,.06.05.09.17.09h.16a.65.65,0,0,0,.17-.5v-.09l-.17-.17h-.08a6.34,6.34,0,0,0,.59-.87c.16-.31.33-.6.5-.88,0-.06.75-1.35,2.09-3.89A92.46,92.46,0,0,0,48,37.05l.34-.08v-.08a.25.25,0,0,0-.08-.17h-.17a.27.27,0,0,0,.08-.17.63.63,0,0,1,.09-.25v.08c0,.12,0,.17.08.17s0,.08.08.08h.17a.07.07,0,0,1,.08-.08v-.33h-.41c.11-.39.25-.81.41-1.26a10.92,10.92,0,0,0,.42-1.34h.17l.08-.08.09-.09h.08V33h-.17l1-3.18v.25h.16a.26.26,0,0,1,.17-.09v-.33h-.17l-.08.08c-.06,0-.08,0-.08.09l.5-1.85h.08a.22.22,0,0,0,.09-.16v-.17h-.09a10.72,10.72,0,0,0,.3-1.05,10.52,10.52,0,0,1,.29-1h.08l.09-.09v-.16H51.6q1.09-4.18,1.93-8.33c.56-2.76,1-5.57,1.42-8.41V8.51a1,1,0,0,0,.17-.21.38.38,0,0,1,.33-.12l.17-.08h1.17a10.28,10.28,0,0,1,3,.46,3.12,3.12,0,0,1,2.14,2,13.05,13.05,0,0,1,.75,1.84c.22.61.46,1.32.71,2.13s.52,1.77.8,2.89A61.3,61.3,0,0,1,65.33,24,56.51,56.51,0,0,1,65.66,33v-.08h-.08a.36.36,0,0,0-.25.08V33a.24.24,0,0,0,.08.16h.25L65.5,36l-.09.25.17-.17a70.94,70.94,0,0,1,8.54-14.56v.08l.08.08c0,.06,0,.09.08.09h.26l.08-.09.08-.08c0-.11,0-.17-.08-.17a.07.07,0,0,0-.08-.08c0-.06,0-.08,0-.08s0,0,0-.09L74.7,21s-.08,0-.08-.08l.25-.33.08-.09V20.4l.42-.5v.16a.08.08,0,0,1,.09.09h.25c.16,0,.25-.06.25-.17v-.25a.28.28,0,0,0-.25-.17c.28-.39.57-.76.88-1.13a13.43,13.43,0,0,1,1-1v.08h.17v-.08s.08,0,.08-.09v-.08h-.08a50.36,50.36,0,0,1,3.85-3.81q1.75-1.54,3.09-2.55V11l.17.09.08.08.17-.33h-.17v-.09h-.08c1.34-.89,2.2-1.45,2.59-1.67h.09l.42-.21a4.4,4.4,0,0,1,.5-.21c0,.06,0,.08,0,.08s0,0,0,.09a.17.17,0,0,1,.13,0,.16.16,0,0,0,.12,0l.09-.08c.05,0,.08,0,.08-.09V8.51a8.81,8.81,0,0,1,1.38-.25c.53,0,1.1-.08,1.72-.08a12.19,12.19,0,0,1,1.34.08,9.21,9.21,0,0,1,1.25.25,1.77,1.77,0,0,1,.59.51.57.57,0,0,1-.17.41,1.48,1.48,0,0,1-.17.42l-.16-.33-.26.25h.17l.09.08h.08L93.45,12,93.37,12h-.09L93.2,12v.17h.08l.09.08c-.34.56-.67,1.1-1,1.63s-.64,1.08-.92,1.63h-.17v.09a.25.25,0,0,0-.08.17v.08L90.61,17h-.17c-.06,0-.09,0-.09,0s0,0-.08,0l-.08.08a.27.27,0,0,0-.17.26v.16h.08v.09h.09v.08l-1.26,2.43H88.6c-.06,0-.09,0-.09,0s0,0-.08,0l-.09.08v.34a.24.24,0,0,0,.17.08h.09a.17.17,0,0,1,0,.13.21.21,0,0,0,0,.12c-.17.34-.35.67-.54,1a9.24,9.24,0,0,0-.55,1.09h-.08v.25h-.08l-.25.5a.24.24,0,0,1-.09-.17h-.08l-.25-.17-.09-.08h-.08v.08h-.08v.09a.15.15,0,0,1-.17.17l-.08-.09H86c-.11,0-.17,0-.17.09a.14.14,0,0,1-.16.16.26.26,0,0,1-.17.09c-.06,0-.08,0-.08.08v.17a.46.46,0,0,0,.16.25v.08h.17V24.5c.06,0,.08,0,.08,0s0,0,.09,0a.51.51,0,0,1,.33-.42.88.88,0,0,1,.34.08h.16c.06,0,.09,0,.09-.08q-.42.91-.75,1.8c-.23.58-.45,1.13-.67,1.63v-.09ZM9,51.7H8.67v.08a.08.08,0,0,0-.09.09V52l.09.08h.17c.05,0,.08-.05.08-.16L9,51.78Zm1.17,3.1c0-.06,0-.09-.08-.09a.07.07,0,0,0-.08-.08c0-.06-.06-.08-.17-.08l-.17.08-.08.17-.08.08a.27.27,0,0,1,.08.17l.08.08a.24.24,0,0,1,.17.09c.05,0,.08,0,.08-.09H10l.16-.17Zm-.5-4.52a.24.24,0,0,0-.08.16.22.22,0,0,0,.17.09.07.07,0,0,1,.08.08h.08v-.17c.11-.11.11-.16,0-.16v-.09H9.67Zm.76,3a.22.22,0,0,0,.08.17.25.25,0,0,0,.17.08h.16a.32.32,0,0,0,.09-.25l.08-.08V53a.27.27,0,0,1-.08-.17l.08-.08v-.25l-.08.08h-.09l-.08.08-.08.09a.26.26,0,0,1-.09.17l-.08.16-.08.09Zm.5-4.77v-.25l-.09-.09h-.16a.26.26,0,0,0-.09.17v.17Zm.25,8.2-.08-.08v-.09c-.06-.16-.2-.19-.42-.08v.08a.48.48,0,0,0-.09.34h.09s.08.08.25.08H11c.06,0,.09,0,.09-.16h.08Zm.08-10.46H11a.29.29,0,0,0-.17.08h-.08l-.08.09v.16h.08v.09h.17v-.09a.46.46,0,0,0,.25-.16v-.09Zm-.16-1.42.08-.09v-.16h-.25v.08h-.09v.17Zm1.33-1.26v-.42l-.08.09v-.09l-.08-.08A.24.24,0,0,0,12.1,43l-.17.08a.15.15,0,0,0-.17.17q0,.16.09.21a.77.77,0,0,1,.17.12Zm-.16,3.68a.21.21,0,0,1,.08-.16V47H12.1v.09H12v.08h.08c0,.06,0,.08.08.08Zm.42,3.1v-.17c.11,0,.11,0,0-.16s-.09-.09-.26-.09h-.08V50c-.06,0-.08,0-.08.08v.17l-.09.08Zm-.17-1-.09-.09h-.08v.09a.07.07,0,0,1-.08.08c0,.06,0,.08.08.08v.09h.25v-.25Zm.42,3.26-.09-.08v-.09h-.08a.46.46,0,0,0-.25-.16l-.09.08a.07.07,0,0,0-.08.08.25.25,0,0,1-.08.17v.25a.49.49,0,0,0,.16.34h.17c.22,0,.34-.09.34-.25Zm-.09,3.52h.09v-.09L12.85,56V55.8a.24.24,0,0,0-.16-.08H12.6V56h.09v.08h.16Zm0-14.4h.25v-.25H13c0-.06,0-.08-.08-.08Zm.42,8.7-.08-.08-.09-.08h-.16s0,.08-.09.08v.25c.06,0,.09,0,.09,0s0,.05.08.05h.25Zm.25-2a.26.26,0,0,0,.09-.17V48.1h-.26a.27.27,0,0,0-.08.17l-.08.08v.09Zm-.25-3.94c0,.28.06.45.17.5s.08,0,.08.09v.25a.07.07,0,0,0-.08.08v.09l.17.16h.25c.05,0,.08,0,.08-.08l.08-.08v-.09c0-.11,0-.16-.08-.16s-.07-.18,0-.21a.17.17,0,0,0,0-.13v-.08H14v-.25a.26.26,0,0,0,.09-.17c0-.06,0-.09,0-.09s-.05,0-.05-.08h-.08l-.08-.08a.22.22,0,0,1-.13,0,.32.32,0,0,0-.21-.05l-.08.09C13.33,44.17,13.27,44.28,13.27,44.5Zm0,10a.27.27,0,0,0,.17.08c0,.06,0,.08.08.08h.09v-.33h-.34Zm.84-8.21-.17-.16a.24.24,0,0,1-.17-.09h-.08a.07.07,0,0,0-.08-.08c-.06,0-.09,0-.09.08s0,.17.09.17,0,.08.08.08a.22.22,0,0,0,.17.09v.08H14v-.08Zm-.34-7.78c-.16.06-.19.2-.08.42l.17.08H14c.12-.11.17-.19.17-.25v-.08l-.08-.09v-.08H14c0-.05,0-.08-.08-.08h-.17Zm.34,13.64a.27.27,0,0,0-.17-.08c-.06,0-.08,0-.08-.09h-.09l-.08.34.33.17.09-.09Zm-.25.59c.05,0,.08,0,.08-.09h-.08c0-.05,0-.08-.09-.08v-.08h-.08v.25l.17.17Zm0-4.69v.34h.25V48.1Zm.5,2.09a.49.49,0,0,0-.25.42c0,.17.11.25.33.25h.42v-.08a.24.24,0,0,0,.09-.17h-.09v-.17c-.11,0-.17,0-.17-.16a.22.22,0,0,0-.16-.09Zm.25,1.51a.32.32,0,0,0,.08-.25v-.17a.24.24,0,0,0-.16-.08h-.09l-.16-.09v.09h-.09v.08c0,.11,0,.17-.08.17v.08l.17.17Zm-.17-12a.22.22,0,0,0,0,.34v.08h.09v.08l.16.17h.17a.48.48,0,0,0,.34-.17l.08-.08h.08a.36.36,0,0,0,.25-.08.33.33,0,0,0,.09-.25.48.48,0,0,0-.09-.34V39.4c-.11,0-.18,0-.2,0a.25.25,0,0,0-.13,0,.22.22,0,0,0-.13,0,.15.15,0,0,1-.12,0h-.17a.37.37,0,0,0-.25.08C14.5,39.59,14.44,39.68,14.44,39.73Zm.25,1.17a.15.15,0,0,0,.17.17H15l.16-.17v-.33L15,40.48l-.42.17a.27.27,0,0,0,.08.17Zm.42,7.54a.08.08,0,0,0,.09-.09v-.17l-.09-.08h-.25v.17a.07.07,0,0,1-.08.08v.09Zm.42-.17a.24.24,0,0,0-.17-.09h-.08v.09c-.11,0-.11,0,0,.17l.08.08h.17Zm.34-6.19a.4.4,0,0,0,.08-.42v-.09a.47.47,0,0,0-.34-.16.16.16,0,0,0-.12,0,.17.17,0,0,1-.13,0v.08c-.11,0-.16.09-.16.25s0,.09,0,.09,0,0,0,.08v.09a.51.51,0,0,0,.33.08A.38.38,0,0,0,15.87,42.08ZM15.53,45a.24.24,0,0,0-.08-.16l-.09-.09H15.2V45l.08.09h.08v.08l.17-.08Zm.34,2.35-.09-.09H15.7l-.09.09v.17l-.08.08h.17v.08h.08l.09-.08v-.17a.07.07,0,0,0,.08-.08ZM15.7,38l.08.09H16a.37.37,0,0,0,.08-.25v-.09L16,37.64h-.17a.27.27,0,0,0-.08.17s0,.08,0,.08-.05,0-.05.08Zm0,.84.33.08.17-.16a.36.36,0,0,0-.08-.25L16,38.39h-.16l-.09.09-.08.16Zm.5,1.26c0-.06-.06-.09-.17-.09h-.16v.42h.25l.08.08Zm0-3a.35.35,0,0,0-.17.34v.17c.06.11.1.16.13.16s.07,0,.12.09h.34c.22-.11.25-.31.08-.59l-.08-.08a.33.33,0,0,0-.25-.09Zm.42,2h-.25c0,.06,0,.09,0,.09s0,0,0,.08v.08l-.08.09h.25v.08h.09a.07.07,0,0,0,.08-.08c.05,0,.08-.06.08-.17v-.08Zm0,2.09v-.08c0-.11,0-.17-.08-.17l-.09-.08h-.08v.08l-.09.09v.08l.17.08ZM17.37,37a.37.37,0,0,0-.08.25.21.21,0,0,0,.17.08h.08a.24.24,0,0,0,.08-.16v-.09l.09-.08Zm.34.59a.21.21,0,0,0-.17.08c0,.06,0,.1,0,.12a.18.18,0,0,0,0,.13V38l.08.09s.05.08.17.08h.16l.09-.08.17.17a.49.49,0,0,1,.08.33.27.27,0,0,0,.08.17v.08h.09l.16-.08a.08.08,0,0,0,.09-.09c.05.23.17.34.33.34h.25l.09-.09h.16l-.08-.08a.07.07,0,0,0-.08-.08v-.09h-.09l-.08-.08-.08-.08H19v-.09a.36.36,0,0,1-.08-.25V38s0-.08,0-.08,0,0,0-.08v-.25h-.09c-.05,0-.08,0-.08,0s0,0-.09,0h-.16a.33.33,0,0,1-.25.08c-.12,0-.17,0-.17-.08a.27.27,0,0,1-.17-.08Zm1.09,3.76a.29.29,0,0,0-.17-.08h-.09v.17c0,.05,0,.08.09.08s0,.08.08.08h.09Zm.33-1.59a.07.07,0,0,0-.08-.08v-.09H19l-.08-.08H18.8l-.09.08c-.05,0-.08,0-.08.09v.17l.17.16.08.09a.26.26,0,0,0,.17-.09V39.9a.07.07,0,0,0,.08-.08ZM30,67.85c0-.22-.08-.33-.25-.33h-.34l-.16.17c-.06,0-.09,0-.09.08h-.08l-.08.08a.22.22,0,0,0,.08.17h.42a.21.21,0,0,0,.17.08.22.22,0,0,0,.16.09.24.24,0,0,0,.09-.17Zm.25-1.92a.32.32,0,0,0,.25-.09.43.43,0,0,0,.09-.33v-.17c0-.11-.09-.17-.26-.17a.45.45,0,0,0-.33.09.27.27,0,0,1,.08-.17l.17-.42v-.08l-.08-.08h-.25l-.25.33-.09.08V65l.09.16h.08l.08.09H30c-.06,0-.08,0-.08.17l-.09.08c0,.11-.05.17-.16.17s-.09,0-.09,0,0,0-.08,0v.17s0,.14.17.25a.24.24,0,0,0,.16.08l.09.09H30l.17.08V66.1c0-.06,0-.09,0-.09s-.05,0-.05-.08ZM30.85,67h-.42v.08c-.06,0-.09.05-.09.17h.09a.07.07,0,0,0,.08.08h.09l.16-.17V67.1Zm1.09-1.26c0-.06,0-.08-.09-.08h-.08l-.09-.09v.17a.07.07,0,0,0-.08.08v.09l.08.08h.09c0,.06,0,.09.08.09h.09Zm1.17-1.59a.37.37,0,0,0,.08-.25c0-.06-.06-.08-.17-.08h-.08c-.06,0-.08,0-.08.16l-.09.09v.08ZM33.78,62h-.09a.24.24,0,0,0-.16-.08h-.09c0,.06,0,.08-.08.08h-.09c0,.06,0,.09-.08.09v.08l.08.17h.17c.06,0,.09,0,.09-.08a.22.22,0,0,0,.16-.09v-.08h.09Zm.83,4.27A.32.32,0,0,0,34.7,66v-.08c0-.11-.09-.17-.25-.17h-.09v.08a.29.29,0,0,0-.08.17l-.09.09v.08h.17a.27.27,0,0,0,.17.08Zm-.16-1c-.06,0-.09,0-.09.08v.09l.17.08h.08c0-.06,0-.08.09-.08v-.17a.26.26,0,0,0-.17-.09h-.08Zm.33-2.43h-.33V63l.08.08h.17V63l.08-.09Zm1.09,1.34h-.08c0-.06,0-.08-.09-.08h-.08l-.09.08v.08h-.08v.17h.17c0,.06,0,.09.08.09h.09a.17.17,0,0,1,0-.13.22.22,0,0,0,0-.13Zm.92-3.43c.05,0,.08-.06.08-.17v-.08l-.16-.17a.61.61,0,0,0-.42-.17l-.09.09c-.11,0-.16.08-.16.25a.35.35,0,0,0,.08.5.37.37,0,0,1,.08.25.27.27,0,0,0-.08.17v.25a.51.51,0,0,0,.33.08.25.25,0,0,0,.17-.08v-.59l.09-.08v-.08l.08-.09Zm-.25,1.67s0-.08,0-.08,0,0,0-.08h-.08l-.08-.09H36.2a.07.07,0,0,0-.08-.08H36v.08a.22.22,0,0,0,.08.17v.08a.15.15,0,0,1,.17.17h.16l.09.08Zm-.17,1.84c-.06,0-.08,0-.08,0s0,0-.09,0h-.08v.08a.24.24,0,0,0-.08.17l.08.09h.08l.09.08v-.17a.07.07,0,0,0,.08-.08Zm1.51-2.93.08.09H38v.08l.09-.08v-.09s.08,0,.08-.08l-.08-.08L38,61.07H38l-.08.09Zm.42,2.35h-.17L38,63.58l-.08.09-.08.17v.08H38V64h.17a.24.24,0,0,0,.08-.16l.09-.09Zm.08-6.45v-.41H38.3c-.23,0-.34,0-.34.08a.1.1,0,0,0,0,.17v.16a.15.15,0,0,0,.17.17h.08Zm.67,1.18a.17.17,0,0,1,0-.13.17.17,0,0,0,0-.13l-.08-.08c-.11-.17-.22-.25-.34-.25h-.16a.33.33,0,0,0-.17.5c0,.11.08.2.25.25h.08c.12,0,.17,0,.17-.08A.27.27,0,0,0,39.05,58.4Zm.08-3.18.09-.09v.09Zm.34,1.67V57l.08-.08v-.34l-.08-.08c-.06,0-.09,0-.09-.08H39.3l-.08.08c-.06,0-.09,0-.09.08v.17l.17.17Zm.33.75v-.25h-.16l-.09.08-.08.09.17.08Zm.42-2h-.17l-.16-.08-.09.08v.09a.07.07,0,0,0-.08.08l-.08.08h.16a.08.08,0,0,0,.09.09h.16c.06,0,.09-.06.09-.17l.08-.08Zm.84-1.75a.07.07,0,0,0,.08.08h.17l.08-.08v-.17h.09l-.09-.09h-.25l-.08.09Zm1.84,1.84a.22.22,0,0,1-.08-.17.25.25,0,0,1-.17-.08c-.17-.17-.23-.31-.17-.42v-.67l-.08.08h-.67a.25.25,0,0,1-.17-.08l-.08-.09h-.25v.09a.32.32,0,0,0-.09.25.22.22,0,0,0,.25.25l.09-.08h.08v.08a.07.07,0,0,1,.08.08l.17.17v.5a.22.22,0,0,0,.17-.08h.08c.06,0,.09,0,.09-.08a.38.38,0,0,0,.41.33v.08h.09a.24.24,0,0,0,.17-.08h.08Zm-1,2.42s0-.08-.08-.08h-.08a.24.24,0,0,0-.09.17c0,.05,0,.08.09.08s.08,0,.08.09h.08Zm.59-1.5a.27.27,0,0,0-.08-.17.24.24,0,0,0-.17-.08H42v.25l.08.08v.09c.06,0,.09,0,.09.08h.16c.06,0,.09,0,.09-.08l.08-.09ZM44.57,33c0,.05,0,.08.09.08s.05.08.16.08l.09-.08H45l.09-.08c.05-.06.05-.14,0-.25A.08.08,0,0,0,45,32.7a.36.36,0,0,0-.25-.08l-.08.08a.08.08,0,0,0-.09.09Zm3.52,3.76c0,.06,0,.09,0,.09s0,0,0,.08v-.08A.08.08,0,0,1,48.09,36.8ZM48,37h.09l-.09.08Zm1.51-2.68c-.06,0-.08,0-.08.09a.22.22,0,0,1-.09.16h.25l.09-.08v-.17Zm.34-.08v.42h.25v-.09h.08v-.33Zm1.34.17h-.42a.22.22,0,0,0-.09.16v.17a.24.24,0,0,0,.09.17.24.24,0,0,1,.16.08c.17,0,.26-.05.26-.17Zm.16-1.09.09-.09h.08l.08-.08v-.33l-.08.08h-.25a.32.32,0,0,0-.08.25v.08Zm0-.92c0,.16,0,.25.09.25h.08a.33.33,0,0,0,.25-.09l.08-.08c0-.05,0-.08,0-.08s0,0,0-.09V32.2h-.42Zm.75,2.17a.51.51,0,0,0,0-.42.24.24,0,0,0-.16-.08h-.25c-.06,0-.09,0-.09.08s-.14.23-.08.34v.08c0,.06,0,.09,0,.09s0,0,0,.08v.08c.06,0,.09,0,.09.05s0,0,.08,0h.08v-.09h.09v-.08H52v-.08Zm-.41-7.95a.32.32,0,0,0,.25.09h.25v-.09a.21.21,0,0,0,0-.33.33.33,0,0,0-.25-.09h-.09c-.05,0-.08,0-.08,0s0,0-.08,0ZM52.27,32H52.1v.25h.26V32Zm.67-9a.07.07,0,0,0-.08-.08v-.08h-.17l-.17.08V23c0,.12,0,.17.09.17s0,.08.17.08h.08l.08-.08Zm-.08,7.28s.08,0,.08-.08l-.08-.08V30h-.34v.25a.08.08,0,0,1,.09.09h.08C52.8,30.36,52.86,30.33,52.86,30.27Zm0-7.53a.07.07,0,0,0,.08-.08h.25v-.34q-.16-.16-.33.09c-.06,0-.08.05-.08.16v.09Zm.58,2.76-.08-.08a.07.07,0,0,0-.08-.08h-.17v.16a.25.25,0,0,0,.08.17h.17a.07.07,0,0,1,.08-.08Zm.42-.25h-.25v.25l-.08.09h.08l.09-.09h.16Zm.34.5H54V26h.25Zm.33,3v.08h-.08Zm.5-4.61h-.25c-.05,0-.08.06-.08.17l.08.09H55l.08-.09Zm3.85,13.73s0-.08-.08-.08v-.25l-.08.08v-.08a.08.08,0,0,1-.09-.09v-.08c0-.17-.05-.25-.16-.25h-.09a.51.51,0,0,0-.33.08H58a.22.22,0,0,0,0,.34c0,.11.09.16.26.16s.13.06.25.17V38a.22.22,0,0,1,.16.09h.09Zm1-.33a.38.38,0,0,0-.08-.26h-.26s-.14.06-.25.17v.34a.22.22,0,0,0,.09.16h.08l.08-.08h.17s0-.08.09-.08a.22.22,0,0,1,.08-.17Zm-.17-7.45v.25h.09c.11,0,.16,0,.16-.09V30Zm1.09,2.42-.08-.08a.38.38,0,0,0-.26-.08c-.16,0-.25.05-.25.16s-.08.09-.08.26a.29.29,0,0,0,.33.33.38.38,0,0,0,.26-.08V33c.05,0,.08-.05.08-.16Zm.42-.5.08-.08c.06,0,.14-.06.25-.17-.16-.22-.28-.33-.33-.33L61,31.7V32h.08l.08.08Zm.25,1.42a.24.24,0,0,0,.17-.08V33.2H61.4v.34Zm1.25-1.84-.08-.08-.08-.08v-.17a2.35,2.35,0,0,0-.51-.34H62c-.17,0-.25.06-.25.17s0,.08-.08.08v.09a.45.45,0,0,0-.09.33l.25.25h.09c0,.06,0,.09.08.09,0,.17.11.25.34.25h.16c.06,0,.14-.06.25-.17ZM62,35.38h-.25a.27.27,0,0,1-.08.17v.16h.08a.07.07,0,0,1,.08-.08.27.27,0,0,0,.17-.08Zm.34-2.59v-.34H62a.22.22,0,0,0-.08.17v.08l.08.17h.17c.05,0,.08,0,.08,0S62.26,32.79,62.32,32.79Zm.5-2.35a.37.37,0,0,0,.25-.08.27.27,0,0,1,.08-.17c0-.11,0-.17-.08-.17a.37.37,0,0,0-.25-.08.36.36,0,0,0-.25.08v.09l-.09.08.17.25Zm.33,2.6.09-.09h.16v-.08a.37.37,0,0,1-.08-.25H63v.25c0,.05,0,.08.08.08S63.1,33,63.15,33Zm.42,2.42q.16-.33.09-.42L63.57,35h-.08c-.11,0-.17,0-.17.08l-.17.17v.09l.09.08a.21.21,0,0,0,.16.08Zm.17-3.26s.08-.06.08-.17,0-.17-.08-.17h-.42v.34c.11.11.2.17.25.17s.09,0,.09,0,0,0,.08,0Zm.42-.25h.25c0-.06,0-.09.08-.09V31.7c0-.06,0-.09-.08-.09s0-.08-.09-.08h-.08l-.08.08h-.09c0,.06,0,.09.05.09s0,0,0,.08Zm.92,2.68a.26.26,0,0,0,.17-.09h.08l.08-.08h.09v-.08l-.17-.17a.48.48,0,0,1-.17-.34l-.08-.08v-.17h.08v-.17l-.08-.16h-.17a.36.36,0,0,0-.25.08l-.08.17v.08l.16.17v.08l-.08.09a.07.07,0,0,1-.08.08c-.06.06-.09.1-.09.13s0,.07-.17.12a.22.22,0,0,0-.16.09.46.46,0,0,0,.16.25h.09l-.17.16v.42c.06,0,.08,0,.08.09l.09.08v.08h.08v-.08c.06,0,.09,0,.09-.08v-.09l.08-.08V35c.17-.17.28-.25.33-.25Zm-.42-2.77c-.06,0-.08,0-.08.09a.39.39,0,0,0,0,.5.16.16,0,0,1,.12,0,.17.17,0,0,0,.13,0,.47.47,0,0,0,.33-.16l.09-.09V32a.26.26,0,0,0-.09-.17v-.08a.85.85,0,0,0-.5,0ZM74,23.41a.07.07,0,0,1,.08-.08.24.24,0,0,0,.09-.17v-.25a.56.56,0,0,0-.5-.34l-.09.09-.17.25v.25a.39.39,0,0,0,.42.25Zm.33,1.42-.08-.08v-.08H74l-.08.08v.17Zm1.09-.16a.24.24,0,0,0,.09-.17v-.08l-.17-.17-.17-.17V24c-.05,0-.08,0-.08-.09h.08a.34.34,0,0,0-.17-.42c-.11-.16-.25-.16-.41,0l-.26.26v.08H74.2l.17.08s.08,0,.08.05,0,0,.09,0,0,.08.08.08a.29.29,0,0,1,.17.08.32.32,0,0,0,.33.26v.25c.06,0,.09,0,.09.08S75.37,24.72,75.37,24.67Zm-.58-.34h-.17s-.06-.08-.17-.08l-.08.08c-.11.11-.11.17,0,.17s0,.08.17.08h.08l.08-.08v-.08h.09Zm-.09-2.26a.08.08,0,0,0,.09.09l.08.08.08-.08V22l-.08-.09H74.7Zm1.43.17H76a.38.38,0,0,1-.17,0,.54.54,0,0,0-.25,0h-.16l-.09.08a.27.27,0,0,0-.08.17c-.06,0-.08,0-.08.08s.05.14.16.25v.17h.09a.07.07,0,0,1,.08.08v.42h.25c0-.05,0-.08,0-.08s0,0,0-.09v-.16c-.16-.17-.14-.31.09-.42v-.09l.08-.08c.06,0,.09,0,.09-.08Zm.25-.67c-.06,0-.09,0-.09,0s0,0-.08,0l-.17.16v.09l-.08.08H76l.09.08h.25v-.08h.08v-.25Zm.25-.33c.11,0,.17-.09.17-.26s-.23-.25-.34-.25h-.17a.25.25,0,0,1-.08.17v.17c0,.11,0,.17.08.17a.22.22,0,0,1,.17.08h.08Zm.42.83c0-.05,0-.08-.09-.08h-.08V21.9L76.8,22v.17l.08.08a.07.07,0,0,1,.08.08h.09Zm1.42-2.51-.17.09h-.58a.21.21,0,0,0-.17.08h-.09a.33.33,0,0,1-.08.25v.25a.74.74,0,0,1-.08.42c-.06,0-.09,0-.09.08a1.17,1.17,0,0,0,0,.59v.08c0,.06,0,.09.05.09s0,0,0,.08h.16c.06,0,.09,0,.09-.08a.37.37,0,0,0,.08-.25l.09-.09a.33.33,0,0,1,.08-.25l.33-.25v-.08c0-.12,0-.17-.08-.17s0-.17-.08-.17v-.17h.42l.08-.08ZM77.8,32l.25-.25v-.25c0-.06,0-.09-.08-.09a.52.52,0,0,0-.34-.17s-.08,0-.08.09a.22.22,0,0,0-.25.25c-.06,0-.09.06-.09.17s.23.25.51.25Zm0,9.37.08.09a.22.22,0,0,1,.17.08l.08-.08v-.09a.22.22,0,0,0,.09-.17l-.09-.08L78,41c-.06,0-.09,0-.09.08l-.08.08ZM78,18.89a.24.24,0,0,0-.09.17h.25l.09-.08v-.09h-.09c0-.05,0-.08-.08-.08H78Zm.58,22.85H78V42l.16.17h.09l.25.17h.25l.17-.09.08-.16v-.17s-.08,0-.08-.09a.22.22,0,0,1-.17-.08Zm-.33-13.31h.17s.08,0,.08-.08v-.08l.08-.17h-.08v.08h-.25Zm.42-11.8c0,.11.08.2.25.25a.33.33,0,0,0,.25-.08h.08c.06,0,.09,0,.09,0s0,0,.08,0l.17-.59V16h-.34l-.08.09h-.25l-.17.16c0,.06,0,.09-.08.09Zm1,1.09h-.08s0-.08-.09-.08a.16.16,0,0,0-.12,0,.17.17,0,0,1-.13,0h-.08v.08h-.08c-.23.06-.28.2-.17.42v.09H78.8l-.16.16v.42l.08.09h.08a.08.08,0,0,0,.09-.09l.17-.33v-.09h.16c.06,0,.09,0,.09-.08h.08l.25-.17Zm.25,22.85a.39.39,0,0,0-.42.25v.08h-.08l-.17.17h.09v.08h.58a.32.32,0,0,0,.25-.08s0-.08.09-.08l.08-.09.08-.16.09-.09h-.09l-.08-.08-.08-.09h-.17v.09Zm-.58-12.22c0,.06,0,.08.08.08a.22.22,0,0,0,.17.09h.16l.17-.25v-.34a.29.29,0,0,0-.08-.17l-.09-.08a.24.24,0,0,0-.16.08l-.09.09V28l-.08.09c-.06,0-.08,0-.08.08Zm.5-11.72h.08l.09-.08V16.3a.08.08,0,0,1-.09-.09h-.17l-.08.09v.16ZM80,26v-.09l.08-.08v-.09l-.17-.16h-.08V25.5l-.09.09-.08.08v.17a.27.27,0,0,0,.17.08c0,.06,0,.09.08.09Zm-.26-8.29.09.08s.08,0,.08.09H80a.22.22,0,0,1,.08-.17v-.08a.24.24,0,0,0-.17-.09l-.08-.08v.08h-.09Zm.34.75h-.25l-.09.17v.08h.09c0,.06,0,.09.08.09H80s.08-.06.08-.17h.08v-.08Zm.25,20.84c-.22.12-.33.23-.33.34v.17c0,.11,0,.16.08.16l.17.17h.16a.38.38,0,0,0,.26-.08h.08v-.34A.37.37,0,0,0,80.31,39.31ZM80.48,23c-.11,0-.2,0-.25,0s-.09.09-.09.25.06.14.17.25h.08v.09h.17l.09.08a.3.3,0,0,0,.25.09.33.33,0,0,0,.25-.09v-.08a.37.37,0,0,0,.08-.25v-.09l-.08-.08v-.25a.24.24,0,0,0-.09-.17h-.25s-.08,0-.08.09v.33a.07.07,0,0,0-.08-.08L80.56,23Zm0,1.76a.07.07,0,0,0,.08-.08.33.33,0,0,0,.09-.25c0-.06-.06-.14-.17-.26a.15.15,0,0,0-.17.17c-.06,0-.08,0-.08.09l-.09.16v.17Zm.25,3.68a.36.36,0,0,0,.08-.25c0-.11-.11-.17-.33-.17h-.17v.26a.46.46,0,0,0,.25.16Zm.17-3.34c0,.05,0,.08,0,.08s0,0,0,.08v.25l.08.09v.08h.09a.37.37,0,0,0,.25-.08l.08-.09.09.09c.11.11.19.16.25.16h.08l.08-.08.09-.08a.37.37,0,0,0,.08-.25c0-.06-.11-.14-.33-.25h-.09a.22.22,0,0,1-.16-.09.07.07,0,0,0,.08-.08h.08a.33.33,0,0,0,.09-.25c0-.06-.09-.14-.25-.25h-.09l-.08-.09h-.09l-.08-.08-.33.25v.17c-.06,0-.09,0-.09.08s0,.08,0,.08,0,0,0,.09Zm.25-3.77a.53.53,0,0,0-.34.5h.09l.08.08a.26.26,0,0,1,.17.09h.08l.17-.17a.36.36,0,0,0,.08-.25v-.08l-.17-.17Zm.08,15a.15.15,0,0,0,.17-.17.36.36,0,0,0,.08-.25.22.22,0,0,0-.25-.25h-.08c-.06,0-.09,0-.09,0s0,0-.08,0a.31.31,0,0,0,0,.42l.17.17Zm.17-15.82a.22.22,0,0,0,0,.34l.17.08h.08a.36.36,0,0,1,.25-.08c.11,0,.17,0,.17.08a.21.21,0,0,0,.17.08h.08l.08-.08v-.08c0-.06,0-.09,0-.09s0,0,0-.08-.08,0-.08,0,0,0-.09,0a.15.15,0,0,1-.12-.05.42.42,0,0,0-.21,0l-.17-.08h-.17Zm.08-4.18a.24.24,0,0,0,.09-.17l-.09-.08h-.17v.16a.08.08,0,0,0,.09.09v.08h.08Zm0,9.54-.17.08.17.34.25-.17Zm.17,11.3s.08,0,.08-.09l-.16-.16h-.09V37a.27.27,0,0,0-.08.17v.08l.08.08.09.09.08-.09Zm.08-15c.06,0,.09,0,.09,0s0,0,.08,0h.17a.29.29,0,0,0,.17-.08.34.34,0,0,0-.09-.26L82,21.82H81.9v-.08l-.25.42Zm.09,4.35.16-.09h.09l-.17-.25-.08.09v.08c-.06,0-.09,0-.09.08h-.08v.09Zm0,11.13c0,.06,0,.08-.09.08h.09Zm.08-.08a.07.07,0,0,1-.08.08h.08Zm.59-14.07c0-.11,0-.16-.09-.16h-.08l-.17.08-.08.08H82a.38.38,0,0,0-.08.26V24l.08.08c.06,0,.14.06.26.17h.16a.08.08,0,0,0,.09-.09Zm-.17,12.06-.08-.09h-.17a.08.08,0,0,0-.09.09H81.9v.08H82v.08h.26v-.08h.08Zm.25-10.88-.17-.25h-.25l-.08.16v.25a.25.25,0,0,0,.08.17.08.08,0,0,0,.09.09h.33a.17.17,0,0,1,0-.13.17.17,0,0,0,0-.13v-.16Zm.17-2.77a.48.48,0,0,0-.17.34v.25h.17v-.33l.08-.09A.27.27,0,0,0,83,22v-.17h-.17Zm.16,2.43v.34l.09.08.08.08.17-.33Zm.76,2q.25-.25,0-.33a.33.33,0,0,0-.25-.09c-.06,0-.09,0-.09,0s0,.05-.08.05,0,.08,0,.08,0,0,0,.08l-.17.17c0,.06,0,.08,0,.08s0,0,0,.09v.17c.06,0,.09,0,.09.08a.15.15,0,0,1,.12,0,.17.17,0,0,0,.13,0h.08c.06,0,.09,0,.09,0s0,0,.08,0v-.08h.08c0-.12,0-.17.09-.17Zm-.42-3.93a.07.07,0,0,0,.08.08c.06,0,.09,0,.09,0s0,0,.08,0h.08c0-.05,0-.08.05-.08s0,0,0-.08l.08-.09-.08-.08h-.09a.21.21,0,0,0-.16-.08h-.09l-.08.16Zm.17-2.35a.33.33,0,0,0-.09.25.08.08,0,0,0,.09.09q0,.33.42.33h.08a.46.46,0,0,0,.33-.33v-.34a.58.58,0,0,0-.5-.25h-.08a.24.24,0,0,0-.17.09Zm.08,4.52v.34h.17l.08-.17.09-.08ZM83.66,18c0,.06,0,.08.08.08,0,.23.14.34.42.34h.08c0-.06,0-.08.05-.08s0,0,0-.09v-.08c-.11-.28-.23-.42-.34-.42h-.08c-.06,0-.08,0-.08,0s0,0-.09,0l-.08.09Zm.33-4.6a.15.15,0,0,0,.17.17h.17s.08,0,.08-.09.11-.25,0-.42V13a.15.15,0,0,1-.12,0,.17.17,0,0,0-.13,0L84,13A.22.22,0,0,0,84,13.37Zm.59.83V14l-.17-.08h-.17V14h-.08a.24.24,0,0,1-.08.16.22.22,0,0,1-.09.17v.34h.17a.24.24,0,0,0,.17-.09l.25-.33ZM84.5,22c0-.06-.06-.09-.17-.09s-.09.06-.09.17-.08,0-.08.09l-.08.08h.42l.08-.08V22Zm-.34,2.43a.07.07,0,0,0,.08.08c0,.06,0,.08.09.08l.17-.25-.26-.17v.09l-.08.08Zm.42.41h-.17s0-.08-.17-.08l-.08.17V25h.08c.06,0,.09,0,.09,0s0,.05.08.05L84.5,25c0-.05,0-.08.08-.08ZM84.41,18c.06.17.14.25.25.25l.09.09h.08v-.09a.17.17,0,0,0,.13,0s.06,0,.12,0v-.25a.48.48,0,0,0-.33-.17h-.17a.27.27,0,0,1-.08.17Zm0,.59c0,.05,0,.08.09.08v.08h.08v-.08a.07.07,0,0,0,.08-.08v-.09s-.08,0-.08-.08l-.08-.08-.09.08Zm.67,3.93-.25-.08v.08c-.06,0-.08,0-.08.08a.22.22,0,0,0,.16.09v.08H85v-.08Zm0,1v.09H85v.17l.08.08h.08l.09-.25h-.09Zm0,1.18h.17l.08-.09V24.5l.09-.08-.34-.17v.08H85v.25Zm.17-4.27a.55.55,0,0,0,.5.25h.08c.28,0,.42.17.42.5a.15.15,0,0,0,.17.17.37.37,0,0,0,.25-.08l.08-.09v-.08l.09-.17c-.11-.11-.2-.17-.25-.17h-.17l-.17-.16-.08-.09-.08-.08v-.09c.11-.22,0-.33-.17-.33l-.09-.08H85.5a.22.22,0,0,0-.17.08.27.27,0,0,1-.08.17Zm.08-3.27.17.26c.11.11.19.16.25.16h.08L86,17.3v-.17l-.08-.08-.17-.25h-.33l-.09.08Zm1,.59a1,1,0,0,0-.42.08v.09h-.09l-.16-.17h-.25v.33l.25.26a.92.92,0,0,0,.67.25h.08a.26.26,0,0,0,.17-.09v-.42c0-.05,0-.08,0-.08s0,0,0-.08V17.8h-.08ZM86.59,12c0,.05,0,.08,0,.08s0,0,0,.08h.08a.21.21,0,0,0,.17-.08l.09-.17v-.08l-.26-.25s-.08,0-.08,0,0,0-.08,0,0-.08-.09-.08h-.08v.08h-.08v.25l.16.17Zm-.25,5.35a.17.17,0,0,0,0,.13.16.16,0,0,1,0,.12s.08,0,.08.09a.37.37,0,0,0,.25.08h.09a.07.07,0,0,0,.08-.08v-.42a.22.22,0,0,0-.17-.09H86.5C86.39,17.13,86.34,17.19,86.34,17.3Zm.16-2.51c-.16.06-.19.22-.08.5v.09l.25.33c0,.06,0,.09.08.09s.09,0,.09-.05,0,0,.08,0H87l.33-.25c.06-.05,0-.17-.08-.33V15s0-.08-.09-.08v-.09a.57.57,0,0,0-.42-.16l-.16.08Zm.34-3.68.08.08h.17v-.08c0-.06,0-.09.08-.09L87,10.86h-.09v-.09l-.08.09ZM87,23.83l-.09.08C86.92,23.86,87,23.83,87,23.83Zm.25-5.36c-.06,0-.09,0-.09-.08h-.08v.08H87v.25l.16.09.17-.17v-.08l.08-.09Zm.08-8.28h.17s.08,0,.08-.09.09,0,.09-.08l-.26-.17Zm.42,6.44h-.17l-.08-.08h-.09l-.08.08v.17c0,.06.06.08.17.08s.08,0,.08-.08h.09v-.08Zm-.34-2.17a.22.22,0,0,0,.09.16s.08,0,.08.09h.09a.22.22,0,0,1,.08-.17c0-.06,0-.08-.08-.08a.08.08,0,0,0-.09-.09h-.17Zm.34-.51c-.06,0-.08,0-.08.09v.16h.16l.09-.08V14H88L87.93,14Zm.5,3.35c.17-.05.2-.19.08-.42l-.08-.16H88l-.17.16v.25a.15.15,0,0,0,.17.17.22.22,0,0,0,.17.09Zm-.17-2.17a.8.8,0,0,0-.08.33c0,.17.19.25.42.25h.17a.47.47,0,0,0,.16-.33v-.17c0-.11-.05-.17-.16-.17a.38.38,0,0,0-.26-.08h-.08l-.08.08A.08.08,0,0,0,88.09,15.13Zm.67,3.51v-.17s0-.08-.08-.08H88.6v-.08h-.09v.33h.17v.08h.08Zm-.16-4.85.33.08s0-.08.09-.08v-.25a.22.22,0,0,0-.09-.17h-.17Zm.75.5q-.25-.16-.33-.09a.15.15,0,0,0-.17.17l-.09.09v.08l-.08.08v.09h.42v-.09h.08A.33.33,0,0,0,89.35,14.29Zm-.42-3.43c-.05,0-.08.05-.08.16h.08v.09H89l.08.08v-.33Zm.59,5.52c-.06,0-.09,0-.09.08h-.08a.24.24,0,0,0-.17.09v.17l.17.16a.24.24,0,0,0,.17-.08h.08l.08-.08h.09l.08-.09v-.08h.08l-.08-.09a.27.27,0,0,0-.17-.08A.1.1,0,0,0,89.52,16.38Zm0-1.34h.08c0,.06,0,.09.08.09l.09.08a.07.07,0,0,0,.08-.08h.08L90,15s.08,0,.08-.09v-.25H90v-.08a.24.24,0,0,1-.09-.17h-.08s-.06-.08-.17-.08l-.08.08v.34l-.08.08Zm.16-2c0,.06.06.14.17.25h.08l.17-.08a.46.46,0,0,0,.34-.17l.08-.08c.06,0,.09,0,.09-.08h.08c0-.06,0-.09-.08-.09l-.09-.17h-.33l-.17.17h-.17v.09c-.06,0-.08,0-.08.08Zm.09-4.27H90V8.68h.08V8.6L90,8.51h-.17l-.08.17Zm.42,0A.34.34,0,0,0,90.1,9c0,.05.06.08.17.08h.08L90.44,9V8.93l.08-.08h-.08a.08.08,0,0,1-.09-.09Zm.33,7.54c0-.06,0-.09-.08-.09l-.09-.08h-.08v.08a.24.24,0,0,0-.08.17h.08c0,.06,0,.08.08.08v.09h.09l.08.08Zm.09-6.36c-.12.11-.12.19,0,.25l.08.08a.07.07,0,0,1,.08.08h.09v.09l.08-.09v-.16c0-.06,0-.09,0-.09s0,0,0-.08V9.94c-.11-.11-.19-.17-.25-.17Zm.58,4.6c0-.06,0-.08-.08-.08s-.09,0-.09-.05,0,0-.08,0h-.08v.34s0,.08.16.08l.09.08v-.08h.08V15h.17v.09l.08-.09v-.17l-.08-.08-.09-.08-.08.08v-.08l.08-.09v-.08ZM92,11v.17h.25v-.08l.08-.09-.08-.08H92Zm1-.67a.22.22,0,0,0,.09.17c0,.11,0,.17.16.17l.17.08h.08v-.08l.09-.08v-.26c0-.11-.09-.16-.25-.16H93.2Z"/><polygon class="cls-2" points="126.99 0 115.69 20.87 121.22 30.44 134.5 7.57 126.99 0"/><polygon class="cls-2" points="116.67 38.84 111.14 29.27 105.37 39.94 110.89 49.5 116.67 38.84"/><path class="cls-2" d="M119.33,137.15c-.06-.72-9-1.44-5.83-4.71,11.52-11.91,3.46-24.62,2-25.1s-2.69,6.41-6.09,6.61c-6.47.39,2.82-6.11-11.83-21.79-.15-.15-3.79-4.69-3.91-5.37-.58-3.09,5.77-8.55,7.4-6.1,1.33,2-.24-2.29-4.62-4.49l9.9-18.29-5.52-9.57L85.72,76.23a20.8,20.8,0,0,0-3.07,1.57C77.21,81.14,65.33,66,59.81,65.94h0C54.26,66,42.39,81.14,37,77.8,22.53,69,16.26,84.13,18.54,80.69c1.62-2.45,8,3,7.4,6.1-.13.68-3.76,5.22-3.91,5.37C7.37,107.84,16.66,114.34,10.2,114c-3.41-.2-4.74-7-6.09-6.61s-9.53,13.19,2,25.1c3.17,3.27-5.78,4-5.83,4.71C-.3,145.24,18,165.07,21.33,161.46c.56,10.47-16.93.18-16.75,1.55,1.23,9.19,5,19.57,30,25.77,4.7,1.18,5.53,0,9.74,2.59a35.54,35.54,0,0,0,15.84,5.09h0A35.46,35.46,0,0,0,76,191.37c4.22-2.63,5-1.41,9.74-2.59,25-6.2,28.06-16.58,29.27-25.77.18-1.37-17.3,8.92-16.74-1.55C101.6,165.07,119.9,145.24,119.33,137.15ZM59.1,179.57c-28-6.34-34.11-26.16-34.89-45.12-.65-16,6.08-38,23.4-43,4-1.17,8.83-8.24,11.49-8.32Zm23.53-47.85a13.32,13.32,0,0,1-18.82,0L82.63,112.9C83.45,119.22,87.82,126.52,82.63,131.72Z"/><path class="cls-2" d="M55.17,131.72a13.32,13.32,0,0,1-18.82,0c-5.2-5.2-.83-12.5,0-18.82"/></g></g></svg>