<svg xmlns="http://www.w3.org/2000/svg" viewBox="0 0 307.83 329.97"><defs><style>.cls-1{fill:#4845e0;}</style></defs><g id="Layer_2" data-name="Layer 2"><g id="Layer_1-2" data-name="Layer 1"><circle class="cls-1" cx="13.49" cy="182.92" r="13.49" transform="translate(-160.66 125.38) rotate(-67.5)"/><circle class="cls-1" cx="294.34" cy="227.15" r="13.49"/><circle class="cls-1" cx="128.44" cy="298.27" r="31.7" transform="translate(-196.27 302.79) rotate(-67.5)"/><circle class="cls-1" cx="270.93" cy="68.09" r="19.15"/><path class="cls-1" d="M131.68,60.73l.22,0c.71.12,1.42.22,2.13.29l.32,0a29,29,0,0,0,4.66,0l.58,0q.87-.08,1.74-.21l.63-.1c.76-.13,1.51-.28,2.26-.47l2.49-.65,1.62,2a153.38,153.38,0,0,0,11.16,12.44c24.43,24.43,44.14,29.24,46.76,27.35a1.13,1.13,0,0,0,.15-.29s0-.09,0-.13.05-.16.07-.26a3.27,3.27,0,0,0,.05-.35.51.51,0,0,0,0-.13c0-.15,0-.32,0-.5v-.08c0-.18,0-.38,0-.58a.22.22,0,0,0,0-.08c0-.22,0-.46-.07-.7v-.06c-.9-6.91-7.74-23.53-27.39-43.27h0l-.26-.26A151.15,151.15,0,0,0,166.4,43.61l-2-1.62.65-2.5a28.93,28.93,0,0,0-14.68-33c1.18,11.61-.65,18.49-5.61,21.44a12.15,12.15,0,0,1-5.16,1.5,5,5,0,0,0-3,1c-1.09.89-1.38,2-1.84,4.06a15.65,15.65,0,0,1-2.19,5.78c-3.36,4.93-10.19,6.72-21.27,5.51a28.74,28.74,0,0,0,20.44,15Z"/><path class="cls-1" d="M261.7,156.41a103.54,103.54,0,0,0-68-97.24A116,116,0,0,1,210,83.65c5.24,11.11,5.9,19.46,1.86,23.5-1.75,1.74-4.3,2.56-7.46,2.56-11.87,0-32.29-11.66-50.57-29.94-3.57-3.57-7-7.32-10.17-11.16a37.31,37.31,0,0,1-28.37-6.36,101.91,101.91,0,0,0-10.69,5.67C90.33,44.67,84.84,27.15,91.47,20.53c3-3,8.13-3.5,15-1.9C78.32,1.7,57.17-4.61,49,3.53c-10.5,10.5,3,42.63,32.4,83.55A103.48,103.48,0,0,0,211.84,244.93c14.27,23.23,19.75,40.74,13.13,47.36-3,3-8.14,3.5-15,1.9,28.16,16.93,49.31,23.24,57.45,15.1,10.5-10.5-3-42.61-32.39-83.52A103.07,103.07,0,0,0,261.7,156.41Z"/></g></g></svg>