<svg width="238" height="255" viewBox="0 0 238 255" fill="none" xmlns="http://www.w3.org/2000/svg">
<path d="M10.4058 151.68C16.1528 151.68 20.8116 147.017 20.8116 141.265C20.8116 135.513 16.1528 130.851 10.4058 130.851C4.65883 130.851 0 135.513 0 141.265C0 147.017 4.65883 151.68 10.4058 151.68Z" fill="#232326"/>
<path d="M227.17 185.856C232.917 185.856 237.576 181.193 237.576 175.441C237.576 169.69 232.917 165.027 227.17 165.027C221.423 165.027 216.765 169.69 216.765 175.441C216.765 181.193 221.423 185.856 227.17 185.856Z" fill="#232326"/>
<path d="M99.119 254.85C112.631 254.85 123.585 243.887 123.585 230.363C123.585 216.839 112.631 205.876 99.119 205.876C85.6067 205.876 74.6528 216.839 74.6528 230.363C74.6528 243.887 85.6067 254.85 99.119 254.85Z" fill="#232326"/>
<path d="M209.093 67.385C217.259 67.385 223.879 60.7596 223.879 52.5867C223.879 44.4138 217.259 37.7883 209.093 37.7883C200.927 37.7883 194.307 44.4138 194.307 52.5867C194.307 60.7596 200.927 67.385 209.093 67.385Z" fill="#232326"/>
<path d="M156.365 142.633C151.483 136.658 143.783 127.863 137.757 121.832C133.87 117.681 129.881 113.511 125.789 109.323C85.0868 66.0171 60.8159 25.6148 70.5801 15.8424C72.8677 13.5528 76.857 13.0502 82.1855 14.3625C60.4533 1.2953 44.1332 -3.59095 37.8283 2.77513C24.3259 16.2333 62.3782 76.2643 122.749 136.798L123.502 137.608V137.747L125.985 140.539C126.71 141.377 127.38 142.159 127.938 142.717C162.837 181.947 182.589 216.793 173.606 225.756C171.318 228.045 167.329 228.548 162.028 227.207C183.761 240.303 200.081 245.161 206.358 238.879C217.042 228.213 195.589 188.592 156.365 142.633Z" fill="#232326"/>
<path d="M113.236 46.0532L114.464 47.6168C117.164 50.9786 120.042 54.1941 123.084 57.2497C141.943 76.0967 157.147 79.8102 159.183 78.3583C160.578 76.3759 156.868 61.1587 138.009 42.2838C134.952 39.2226 131.72 36.3419 128.329 33.6561L126.766 32.4276L127.269 30.501C128.242 26.719 128.216 22.7487 127.194 18.9796C126.171 15.2106 124.188 11.7721 121.438 9.00152C119.797 7.3809 117.915 6.02458 115.858 4.98083C116.946 13.9436 115.524 19.2766 111.59 21.5382C110.363 22.2196 109.001 22.6201 107.601 22.7109C106.762 22.6947 105.94 22.9493 105.257 23.4369C104.427 24.2882 103.923 25.4055 103.835 26.592C103.574 28.1763 103.005 29.6941 102.161 31.0594C99.5662 34.8567 94.2936 36.2528 85.729 35.3035C88.0853 39.7751 91.8874 43.3145 96.5139 45.3432C101.14 47.3719 106.318 47.7699 111.2 46.4721L113.236 46.0532Z" fill="#232326"/>
<path d="M111.311 46.5557L113.236 46.0531L114.463 47.6167C117.164 50.9785 120.041 54.194 123.084 57.2496C141.942 76.0966 157.147 79.8101 159.183 78.3582C160.578 76.3758 156.896 61.2703 138.232 42.4792C132.925 41.4006 127.523 40.8581 122.107 40.8597C113.298 40.8569 104.549 42.3194 96.2183 45.1876C100.942 47.3665 106.272 47.8497 111.311 46.5557V46.5557Z" fill="#232326"/>
<path d="M149.502 45.6908C154.483 51.4304 158.711 57.7826 162.084 64.5936C166.129 73.1655 166.631 79.6153 163.507 82.7425C162.728 83.4379 161.819 83.9713 160.832 84.3117C159.846 84.652 158.801 84.7925 157.76 84.7249C148.582 84.7249 132.82 75.7063 118.703 61.606C115.914 58.8139 113.291 56.0217 110.836 52.9783C107.047 53.663 103.16 53.5809 99.4035 52.7368C95.6469 51.8928 92.0974 50.3039 88.9646 48.0641C72.1363 55.7503 58.4967 69.046 50.3757 85.68C42.2547 102.314 40.1563 121.254 44.4391 139.264C48.7218 157.275 59.1198 173.238 73.8568 184.428C88.5939 195.617 106.755 201.338 125.239 200.613C143.723 199.888 161.381 192.762 175.198 180.453C189.015 168.144 198.133 151.415 200.994 133.124C203.856 114.833 200.283 96.1157 190.886 80.1688C181.489 64.222 166.852 52.0353 149.474 45.6908H149.502Z" fill="#232326"/>
</svg>
